<svg width="68" height="98" viewBox="0 0 68 98" fill="none" xmlns="http://www.w3.org/2000/svg">
<path d="M55.3943 19.9179C55.3943 22.7584 53.089 25.0611 50.2454 25.0611C47.4018 25.0611 45.0966 22.7584 45.0966 19.9179C45.0966 17.0775 47.4018 14.7748 50.2454 14.7748C53.089 14.7748 55.3943 17.0775 55.3943 19.9179Z" fill="url(#paint0_linear_10_61)"/>
<path d="M25.9217 14.0267C25.9217 16.609 23.7754 18.7023 21.1279 18.7023C18.4804 18.7023 16.3342 16.609 16.3342 14.0267C16.3342 11.4445 18.4804 9.35114 21.1279 9.35114C23.7754 9.35114 25.9217 11.4445 25.9217 14.0267Z" fill="url(#paint1_linear_10_61)"/>
<path d="M45.0966 5.89122C45.0966 9.14485 42.5927 11.7824 39.5039 11.7824C36.4152 11.7824 33.9112 9.14485 33.9112 5.89122C33.9112 2.63759 36.4152 0 39.5039 0C42.5927 0 45.0966 2.63759 45.0966 5.89122Z" fill="url(#paint2_linear_10_61)"/>
<path d="M7.27937 31.9809H61.4308V34.0382H7.27937V31.9809Z" fill="url(#paint3_linear_10_61)"/>
<path d="M36.0418 70.8817H47.7598V73.313H36.0418V70.8817Z" fill="url(#paint4_linear_10_61)"/>
<path d="M36.0418 75.5572H47.7598V77.9885H36.0418V75.5572Z" fill="url(#paint5_linear_10_61)"/>
<path d="M36.9295 80.2328H46.8721V82.6641H36.9295V80.2328Z" fill="url(#paint6_linear_10_61)"/>
<path d="M39.7671 98C38.1812 98 36.5953 97.5558 35.1536 96.6675L23.6198 89.2645C21.0246 87.6358 19.5829 84.8227 19.5829 81.7134V56.3952L1.99388 34.3343C0.939838 33.0332 0.270997 31.4492 0.0665817 29.7698C-0.137833 28.0903 0.130743 26.3859 0.840497 24.8585C2.28222 21.7492 5.30984 19.8244 8.62581 19.8244H59.2304C62.6905 19.8244 65.7181 21.7492 67.1598 24.8585C68.6016 27.9677 68.1691 31.6692 66.0065 34.3343L48.4174 56.3952V89.1164C48.4174 92.3737 46.6874 95.3349 43.9481 96.8155C42.6505 97.5558 41.2088 98 39.7671 98ZM8.62581 25.7468C6.89574 25.7468 6.17488 27.0794 6.03071 27.3755C5.88654 27.6716 5.30984 29.1522 6.46322 30.4847L24.7731 53.434C25.2057 54.0262 25.494 54.6185 25.494 55.3588V81.7134C25.494 82.7498 26.0707 83.6382 26.7915 84.2304L38.3253 91.6334C39.6229 92.5218 40.7763 91.9295 41.2088 91.7815C41.6413 91.4854 42.6505 90.7451 42.6505 89.2645V55.3588C42.6505 54.6185 42.9389 54.0262 43.3714 53.434L61.6813 30.4847C62.6905 29.1522 62.258 27.6716 62.1138 27.3755C61.9696 26.9313 61.2488 25.7468 59.5187 25.7468H8.62581Z" fill="url(#paint7_linear_10_61)"/>
<defs>
<linearGradient id="paint0_linear_10_61" x1="34" y1="0" x2="34" y2="98" gradientUnits="userSpaceOnUse">
<stop stop-color="#2369FF"/>
<stop offset="0.740385" stop-color="#AD2EFF"/>
</linearGradient>
<linearGradient id="paint1_linear_10_61" x1="34" y1="0" x2="34" y2="98" gradientUnits="userSpaceOnUse">
<stop stop-color="#2369FF"/>
<stop offset="0.740385" stop-color="#AD2EFF"/>
</linearGradient>
<linearGradient id="paint2_linear_10_61" x1="34" y1="0" x2="34" y2="98" gradientUnits="userSpaceOnUse">
<stop stop-color="#2369FF"/>
<stop offset="0.740385" stop-color="#AD2EFF"/>
</linearGradient>
<linearGradient id="paint3_linear_10_61" x1="34" y1="0" x2="34" y2="98" gradientUnits="userSpaceOnUse">
<stop stop-color="#2369FF"/>
<stop offset="0.740385" stop-color="#AD2EFF"/>
</linearGradient>
<linearGradient id="paint4_linear_10_61" x1="34" y1="0" x2="34" y2="98" gradientUnits="userSpaceOnUse">
<stop stop-color="#2369FF"/>
<stop offset="0.740385" stop-color="#AD2EFF"/>
</linearGradient>
<linearGradient id="paint5_linear_10_61" x1="34" y1="0" x2="34" y2="98" gradientUnits="userSpaceOnUse">
<stop stop-color="#2369FF"/>
<stop offset="0.740385" stop-color="#AD2EFF"/>
</linearGradient>
<linearGradient id="paint6_linear_10_61" x1="34" y1="0" x2="34" y2="98" gradientUnits="userSpaceOnUse">
<stop stop-color="#2369FF"/>
<stop offset="0.740385" stop-color="#AD2EFF"/>
</linearGradient>
<linearGradient id="paint7_linear_10_61" x1="34" y1="0" x2="34" y2="98" gradientUnits="userSpaceOnUse">
<stop stop-color="#2369FF"/>
<stop offset="0.740385" stop-color="#AD2EFF"/>
</linearGradient>
</defs>
</svg>
