<svg width="48" height="48" viewBox="0 0 48 48" fill="none" xmlns="http://www.w3.org/2000/svg">
<g clip-path="url(#clip0_2_36)">
<path d="M24 48C37.2548 48 48 37.2548 48 24C48 10.7452 37.2548 0 24 0C10.7452 0 0 10.7452 0 24C0 37.2548 10.7452 48 24 48Z" fill="#FF4747"/>
<path d="M29.325 16.6828L23.0062 26.7422H15.9984L17.6156 24.2203H21.8156L23.4187 21.6984H13.7109L12.1078 24.2203H14.4094L11.2172 29.2547H24.5344L29.4515 21.4969L31.2469 24.2203H29.6297L28.0969 26.7422H32.8875L34.5515 29.2547H37.6078L29.325 16.6828ZM27.2109 16.6594H16.8797L15.314 19.1812H25.6359L27.2109 16.6594Z" fill="white"/>
</g>
<defs>
<clipPath id="clip0_2_36">
<rect width="48" height="48" fill="white"/>
</clipPath>
</defs>
</svg>
