<svg xmlns="http://www.w3.org/2000/svg" xmlns:xlink="http://www.w3.org/1999/xlink" viewBox="0,0,256,256" width="48px" height="48px" fill-rule="none"><g fill="none" fill-rule="none" stroke="none" stroke-width="1" stroke-linecap="butt" stroke-linejoin="miter" stroke-miterlimit="10" stroke-dasharray="" stroke-dashoffset="0" font-family="none" font-weight="none" font-size="none" text-anchor="none" style="mix-blend-mode: normal"><g transform="scale(5.33333,5.33333)"><path d="M37.846,37.539l-13,6.067c-0.536,0.25 -1.155,0.25 -1.692,0l-13,-6.067c-0.704,-0.329 -1.154,-1.036 -1.154,-1.813v-27.726c0,-1.105 0.895,-2 2,-2h26c1.105,0 2,0.895 2,2v27.726c0,0.777 -0.45,1.484 -1.154,1.813z" fill="#000000" fill-rule="nonzero"></path><path d="M29.39,37h-10.802c-0.137,0 -0.178,0.187 -0.053,0.243l5.288,2.407c0.033,0.015 0.071,0.015 0.104,0.001l5.513,-2.407c0.127,-0.055 0.088,-0.244 -0.05,-0.244z" fill="#ffffff" fill-rule="evenodd"></path><path d="M12.449,24.717h4.332v-2.166h-2.166v-3.61h2.166v-2.165h-2.166v-3.61h2.166v-2.166h-4.332z" fill="#ffffff" fill-rule="nonzero"></path><rect x="25.444" y="11" width="2.166" height="13.717" fill="#ffffff" fill-rule="nonzero"></rect><path d="M20.39,20.385h1.153c1.644,0 2.457,-0.822 2.457,-2.486v-4.259c0,-1.767 -0.868,-2.64 -2.626,-2.64h-0.729h-2.42v13.717h2.166v-4.332zM20.39,13.166h0.722c0.399,0 0.722,0.323 0.722,0.722v3.61c0,0.399 -0.323,0.722 -0.722,0.722h-0.722z" fill="#ffffff" fill-rule="nonzero"></path><path d="M35.551,22.154v-2.491h-2.166v2.04c0,0.579 -0.279,0.848 -0.858,0.848h-0.429c-0.601,0 -0.879,-0.269 -0.879,-0.848v-4.206v-2.763v-0.847c0,-0.399 0.323,-0.722 0.722,-0.722h0.722c0.399,0 0.722,0.323 0.722,0.722v0.722v1.444h2.166v-2.438c0,-1.764 -0.877,-2.616 -2.695,-2.616h-1.086c-1.817,0 -2.716,0.872 -2.716,2.637v8.445c0,1.764 0.899,2.636 2.716,2.636h1.1c1.794,0 2.681,-0.848 2.681,-2.563z" fill="#ffffff" fill-rule="nonzero"></path><path d="M35.494,31.194l-0.006,-0.06l-0.012,-0.06l-0.012,-0.06l-0.012,-0.054l-0.018,-0.054l-0.018,-0.053l-0.023,-0.048l-0.03,-0.054l-0.03,-0.048l-0.036,-0.055l-0.035,-0.047l-0.042,-0.042l-0.042,-0.048l-0.048,-0.042l-0.047,-0.042l-0.048,-0.03l-0.048,-0.036l-0.047,-0.03l-0.054,-0.03l-0.054,-0.03l-0.06,-0.03l-0.06,-0.023l-0.059,-0.03l-0.066,-0.024l-0.053,-0.018l-0.054,-0.018l-0.06,-0.018l-0.053,-0.018l-0.06,-0.018l-0.059,-0.018l-0.06,-0.012l-0.066,-0.018l-0.06,-0.018l-0.065,-0.012l-0.066,-0.018l-0.065,-0.018l-0.066,-0.018l-0.06,-0.012l-0.053,-0.018l-0.054,-0.012l-0.048,-0.017l-0.047,-0.012l-0.072,-0.025l-0.066,-0.023l-0.059,-0.025l-0.048,-0.03l-0.054,-0.03l-0.041,-0.042l-0.024,-0.035l-0.03,-0.066l-0.006,-0.078v-0.012l0.006,-0.06l0.024,-0.054l0.035,-0.054l0.054,-0.048l0.042,-0.024l0.048,-0.024l0.053,-0.012l0.06,-0.012l0.065,-0.012h0.072h0.06l0.053,0.006l0.06,0.006l0.06,0.006l0.059,0.012l0.06,0.013l0.06,0.011l0.059,0.018l0.06,0.018l0.066,0.018l0.047,0.024l0.054,0.018l0.047,0.024l0.055,0.024l0.047,0.024l0.054,0.024l0.048,0.03l0.054,0.024l0.047,0.036l0.048,0.03l0.053,0.03l0.048,0.035l0.036,-0.048l0.03,-0.047l0.035,-0.048l0.036,-0.048l0.036,-0.054l0.03,-0.048l0.036,-0.048l0.036,-0.047l0.03,-0.049l0.035,-0.048l0.036,-0.048l0.03,-0.048l0.035,-0.053l0.036,-0.049l0.036,-0.047l0.03,-0.048l0.036,-0.048l-0.048,-0.036l-0.047,-0.036l-0.048,-0.036l-0.048,-0.03l-0.054,-0.036l-0.047,-0.03l-0.054,-0.03l-0.054,-0.03l-0.048,-0.024l-0.054,-0.03l-0.059,-0.024l-0.053,-0.023l-0.054,-0.025l-0.054,-0.018l-0.06,-0.024l-0.053,-0.011l-0.054,-0.019l-0.06,-0.018l-0.054,-0.011l-0.059,-0.012l-0.059,-0.012l-0.055,-0.012l-0.059,-0.013l-0.065,-0.005l-0.06,-0.012l-0.066,-0.006h-0.06l-0.065,-0.007l-0.066,-0.005h-0.065h-0.066h-0.065h-0.06l-0.059,0.005l-0.06,0.007l-0.06,0.006l-0.06,0.006l-0.053,0.011l-0.06,0.013l-0.054,0.012l-0.054,0.012l-0.047,0.012l-0.054,0.018l-0.06,0.023l-0.059,0.018l-0.054,0.024l-0.053,0.03l-0.054,0.025l-0.054,0.029l-0.048,0.03l-0.047,0.036l-0.048,0.036l-0.042,0.03l-0.047,0.042l-0.042,0.048l-0.042,0.042l-0.042,0.048l-0.036,0.048l-0.035,0.048l-0.03,0.054l-0.03,0.054l-0.023,0.053l-0.025,0.055l-0.023,0.053l-0.012,0.054l-0.018,0.054l-0.012,0.054l-0.012,0.054l-0.006,0.06l-0.006,0.054l-0.006,0.06v0.06v0.012v0.066l0.006,0.065l0.006,0.06l0.006,0.06l0.012,0.054l0.012,0.06l0.018,0.048l0.017,0.054l0.018,0.048l0.025,0.042l0.03,0.053l0.029,0.048l0.03,0.042l0.035,0.042l0.037,0.042l0.041,0.042l0.042,0.042l0.041,0.036l0.048,0.03l0.048,0.036l0.054,0.03l0.048,0.03l0.059,0.03l0.054,0.03l0.059,0.023l0.06,0.025l0.06,0.023l0.065,0.025l0.054,0.017l0.053,0.018l0.054,0.019l0.059,0.011l0.055,0.019l0.059,0.018l0.06,0.011l0.06,0.019l0.059,0.011l0.066,0.019l0.06,0.011l0.065,0.019l0.06,0.011l0.059,0.018l0.054,0.012l0.054,0.018l0.048,0.012l0.041,0.012l0.072,0.03l0.06,0.024l0.053,0.024l0.048,0.024l0.048,0.036l0.041,0.036l0.03,0.042l0.024,0.059l0.006,0.072v0.013l-0.006,0.06l-0.018,0.053l-0.024,0.049l-0.035,0.041l-0.048,0.037l-0.042,0.023l-0.048,0.018l-0.054,0.012l-0.053,0.012l-0.06,0.012l-0.065,0.006h-0.072h-0.06l-0.065,-0.006h-0.06l-0.06,-0.012l-0.065,-0.006l-0.059,-0.012l-0.06,-0.012l-0.06,-0.012l-0.054,-0.018l-0.059,-0.018l-0.06,-0.018l-0.054,-0.024l-0.054,-0.018l-0.053,-0.024l-0.054,-0.023l-0.054,-0.025l-0.047,-0.03l-0.054,-0.023l-0.048,-0.03l-0.053,-0.037l-0.048,-0.03l-0.053,-0.035l-0.048,-0.036l-0.054,-0.036l-0.048,-0.036l-0.036,0.048l-0.041,0.042l-0.036,0.048l-0.042,0.047l-0.036,0.043l-0.035,0.047l-0.042,0.048l-0.035,0.042l-0.043,0.048l-0.035,0.042l-0.042,0.048l-0.036,0.048l-0.035,0.042l-0.042,0.048l-0.036,0.048l-0.042,0.042l-0.036,0.047l0.048,0.043l0.041,0.035l0.048,0.037l0.048,0.035l0.048,0.036l0.047,0.036l0.048,0.03l0.048,0.03l0.054,0.03l0.048,0.03l0.053,0.03l0.054,0.024l0.054,0.03l0.053,0.024l0.054,0.024l0.059,0.023l0.054,0.018l0.06,0.019l0.053,0.023l0.06,0.018l0.06,0.019l0.053,0.011l0.06,0.018l0.059,0.012l0.06,0.012l0.06,0.012l0.06,0.013l0.06,0.005l0.059,0.012l0.065,0.006l0.06,0.007l0.059,0.005h0.066l0.06,0.006h0.059h0.066h0.066h0.059l0.06,-0.006l0.066,-0.005l0.06,-0.007l0.053,-0.006l0.059,-0.006l0.06,-0.011l0.054,-0.013l0.054,-0.012l0.059,-0.012l0.054,-0.018l0.06,-0.018l0.06,-0.017l0.059,-0.025l0.06,-0.023l0.053,-0.03l0.054,-0.024l0.054,-0.03l0.047,-0.036l0.048,-0.03l0.048,-0.036l0.041,-0.036l0.048,-0.042l0.036,-0.035l0.042,-0.043l0.035,-0.042l0.03,-0.047l0.036,-0.048l0.03,-0.048l0.03,-0.048l0.024,-0.054l0.023,-0.048l0.025,-0.054l0.018,-0.06l0.011,-0.054l0.018,-0.06l0.012,-0.06l0.006,-0.066l0.006,-0.059l0.006,-0.066v-0.066v-0.012v-0.066z" fill="#ffffff" fill-rule="nonzero"></path><path d="M31.251,31.679h-0.059h-0.06h-0.059h-0.06h-0.06h-0.059h-0.06h-0.066h-0.06h-0.059h-0.059h-0.061h-0.059h-0.059h-0.06h-0.06h-0.059h-0.06h-0.06h-0.06h-0.059h-0.06h-0.059h-0.06h-0.06h-0.059h-0.06h-0.066h-0.059h-0.06h-0.06h-0.059h-0.06h-0.06h-0.059h-0.059h-0.06v-0.06v-0.066v-0.06v-0.06v-0.065v-0.06v-0.06v-0.066v-0.06v-0.06v-0.066v-0.06h0.06h0.059h0.059h0.06h0.06h0.059h0.06h0.06h0.054h0.059h0.06h0.059h0.06h0.06h0.059h0.06h0.06h0.06h0.059h0.06h0.06h0.059h0.059h0.06h0.06h0.059h0.054h0.06h0.06h0.059h0.06h0.059h0.06h0.059h0.06v-0.06v-0.053v-0.06v-0.06v-0.055v-0.059v-0.06v-0.06v-0.054v-0.06v-0.06v-0.054v-0.059v-0.06v-0.054v-0.06h-0.06h-0.059h-0.06h-0.059h-0.06h-0.059h-0.06h-0.06h-0.054h-0.059h-0.06h-0.06h-0.059h-0.059h-0.06h-0.06h-0.059h-0.06h-0.06h-0.06h-0.059h-0.06h-0.06h-0.059h-0.06h-0.059h-0.054h-0.06h-0.06h-0.059h-0.06h-0.06h-0.059h-0.059h-0.06v-0.06v-0.06v-0.06v-0.06v-0.06v-0.06v-0.053v-0.06v-0.06v-0.06v-0.06v-0.06h0.06h0.059h0.059h0.06h0.06h0.059h0.054h0.06h0.06h0.059h0.06h0.059h0.06h0.06h0.059h0.06h0.06h0.06h0.059h0.053h0.06h0.06h0.06h0.059h0.06h0.06h0.059h0.06h0.06h0.059h0.06h0.059h0.054h0.06h0.059h0.06h0.06h0.059h0.06v-0.06v-0.054v-0.06v-0.06v-0.059v-0.054v-0.06v-0.06v-0.054v-0.06v-0.06v-0.054v-0.06v-0.06v-0.06v-0.053v-0.06h-0.06h-0.059h-0.06h-0.06h-0.059h-0.06h-0.06h-0.059h-0.06h-0.059h-0.06h-0.06h-0.06h-0.059h-0.054h-0.059h-0.06h-0.06h-0.06h-0.059h-0.06h-0.059h-0.06h-0.06h-0.059h-0.06h-0.059h-0.06h-0.06h-0.059h-0.06h-0.06h-0.059h-0.06h-0.06h-0.06h-0.059h-0.06h-0.059h-0.06h-0.059h-0.06h-0.059h-0.055h-0.059h-0.06h-0.059h-0.06h-0.059h-0.06h-0.06h-0.059h-0.06h-0.06h-0.06h-0.06h-0.059h-0.06v0.06v0.06v0.059v0.06v0.06v0.06v0.06v0.06v0.06v0.06v0.059v0.06v0.06v0.06v0.06v0.06v0.06v0.06v0.054v0.059v0.06v0.06v0.06v0.06v0.06v0.06v0.06v0.06v0.06v0.06v0.06v0.06v0.059v0.06v0.06v0.06v0.06v0.06v0.06v0.06v0.06v0.059v0.06v0.06v0.06v0.06v0.06v0.06v0.06v0.06v0.06v0.06v0.06v0.06v0.053v0.06v0.06v0.06v0.06v0.06v0.06v0.06v0.06v0.06v0.06v0.059v0.06v0.06v0.06v0.06v0.06v0.06v0.06h0.06h0.059h0.06h0.06h0.06h0.06h0.059h0.06h0.06h0.065h0.059h0.06h0.06h0.06h0.059h0.06h0.06h0.059h0.06h0.06h0.059h0.059h0.06h0.06h0.059h0.06h0.06h0.059h0.066h0.06h0.059h0.06h0.06h0.059h0.06h0.059h0.06h0.06h0.06h0.059h0.06h0.06h0.059h0.059h0.061h0.059h0.059h0.06h0.066h0.06h0.059h0.06h0.06h0.059h0.06h0.059h0.06h0.06v-0.06v-0.055v-0.06v-0.06v-0.059v-0.053v-0.06v-0.06v-0.055v-0.06v-0.06v-0.053v-0.06v-0.06v-0.06v-0.054v-0.06h-0.06z" fill="#ffffff" fill-rule="nonzero"></path><path d="M26.894,28.307h-0.054h-0.06h-0.059h-0.06h-0.054h-0.06h-0.059h-0.059h-0.054h-0.06h-0.06h-0.059h-0.054h-0.059h-0.06h-0.06h-0.053h-0.06h-0.059l-0.03,0.048l-0.03,0.053l-0.036,0.048l-0.03,0.054l-0.03,0.048l-0.03,0.054l-0.035,0.047l-0.03,0.055l-0.03,0.047l-0.03,0.048l-0.036,0.054l-0.029,0.048l-0.03,0.054l-0.03,0.048l-0.036,0.053l-0.03,0.048l-0.03,0.048l-0.03,0.054l-0.03,0.048l-0.035,0.053l-0.03,0.048l-0.03,0.054l-0.029,0.048l-0.037,0.054l-0.029,0.047l-0.03,0.048l-0.03,0.054l-0.035,0.048l-0.03,0.054l-0.03,0.048l-0.03,0.053l-0.036,0.049l-0.03,0.053l-0.03,0.048l-0.029,-0.048l-0.03,-0.053l-0.036,-0.049l-0.029,-0.053l-0.03,-0.048l-0.03,-0.054l-0.03,-0.048l-0.036,-0.054l-0.03,-0.048l-0.03,-0.047l-0.029,-0.054l-0.03,-0.048l-0.036,-0.054l-0.03,-0.048l-0.03,-0.053l-0.029,-0.048l-0.03,-0.054l-0.036,-0.048l-0.03,-0.048l-0.03,-0.053l-0.03,-0.048l-0.035,-0.054l-0.03,-0.048l-0.03,-0.054l-0.03,-0.048l-0.03,-0.047l-0.035,-0.055l-0.03,-0.047l-0.03,-0.054l-0.029,-0.048l-0.031,-0.054l-0.036,-0.048l-0.03,-0.053l-0.029,-0.048h-0.06h-0.059h-0.054h-0.06h-0.06h-0.059h-0.054h-0.059h-0.06h-0.06h-0.053h-0.06h-0.059h-0.06h-0.053h-0.06h-0.06h-0.06h-0.053h-0.06h-0.06v0.06v0.06v0.059v0.06v0.06v0.06v0.06v0.06v0.06v0.06v0.059v0.06v0.06v0.06v0.06v0.06v0.06v0.06v0.054v0.059v0.06v0.06v0.06v0.06v0.06v0.06v0.06v0.06v0.06v0.06v0.06v0.06v0.059v0.06v0.06v0.06v0.06v0.06v0.06v0.06v0.06v0.059v0.06v0.06v0.06v0.06v0.06v0.06v0.06v0.06v0.06v0.06v0.06v0.06v0.053v0.06v0.06v0.06v0.06v0.06v0.06v0.06v0.06v0.06v0.06v0.059v0.06v0.06v0.06v0.06v0.06v0.06v0.06h0.06h0.06h0.059h0.06h0.059h0.06h0.06h0.059h0.06h0.06h0.059h0.06h0.06h0.06h0.059h0.06h0.059h0.06h0.06v-0.06v-0.06v-0.06v-0.06v-0.061v-0.06v-0.06v-0.06v-0.059v-0.06v-0.054v-0.06v-0.06v-0.06v-0.06v-0.06v-0.06v-0.06v-0.06v-0.06v-0.06v-0.059v-0.061v-0.06v-0.06v-0.06v-0.06v-0.06v-0.06v-0.06v-0.06v-0.06v-0.053v-0.06v-0.061v-0.06v-0.06v-0.06v-0.06v-0.06v-0.059v-0.06v-0.06l0.035,0.048l0.03,0.054l0.036,0.048l0.03,0.054l0.035,0.048l0.03,0.054l0.036,0.048l0.03,0.054l0.036,0.047l0.029,0.055l0.036,0.048l0.03,0.054l0.036,0.048l0.03,0.054l0.035,0.047l0.03,0.055l0.036,0.048l0.036,0.054l0.03,0.048l0.035,0.054l0.03,0.048l0.037,0.054l0.029,0.048l0.036,0.054l0.029,0.048l0.037,0.054l0.03,0.048l0.035,0.054l0.03,0.048l0.036,0.054l0.03,0.048l0.035,0.054l0.03,0.048l0.036,0.054h0.023l0.03,-0.048l0.036,-0.054l0.03,-0.048l0.036,-0.048l0.029,-0.054l0.037,-0.048l0.029,-0.048l0.03,-0.054l0.036,-0.048l0.03,-0.048l0.036,-0.048l0.03,-0.054l0.035,-0.048l0.03,-0.048l0.03,-0.054l0.036,-0.048l0.03,-0.048l0.035,-0.054l0.03,-0.048l0.036,-0.048l0.03,-0.054l0.03,-0.048l0.035,-0.048l0.03,-0.054l0.036,-0.049l0.03,-0.047l0.035,-0.048l0.03,-0.054l0.03,-0.048l0.036,-0.049l0.03,-0.053l0.035,-0.048l0.03,-0.048l0.036,-0.054l0.03,-0.048v0.06v0.06v0.06v0.06v0.06v0.059v0.06v0.06v0.061v0.06v0.06v0.059v0.06v0.06v0.061v0.06v0.059v0.06v0.06v0.06v0.06v0.06v0.06v0.06v0.06v0.06v0.06v0.06v0.06v0.06v0.06v0.06v0.06v0.06v0.059v0.06v0.06v0.06v0.061v0.06v0.06v0.06v0.06h0.06h0.059h0.06h0.065h0.06h0.059h0.06h0.06h0.06h0.065h0.06h0.06h0.059h0.06h0.059h0.066h0.06h0.059h0.06v-0.06v-0.06v-0.06v-0.06v-0.06v-0.06v-0.06v-0.059v-0.06v-0.06v-0.06v-0.06v-0.06v-0.06v-0.06v-0.06v-0.06v-0.06v-0.053v-0.06v-0.06v-0.06v-0.06v-0.06v-0.06v-0.06v-0.06v-0.06v-0.06v-0.06v-0.06v-0.059v-0.06v-0.06v-0.06v-0.06v-0.06v-0.06v-0.06v-0.06v-0.059v-0.06v-0.06v-0.06v-0.06v-0.06v-0.06v-0.06v-0.06v-0.06v-0.06v-0.06v-0.06v-0.059v-0.054v-0.06v-0.06v-0.06v-0.06v-0.06v-0.06v-0.06v-0.059v-0.06v-0.06v-0.06v-0.06v-0.06v-0.06v-0.06v-0.059v-0.06v-0.06h-0.06z" fill="#ffffff" fill-rule="nonzero"></path><path d="M21.917,32.56l-0.024,-0.054l-0.018,-0.06l-0.024,-0.054l-0.024,-0.054l-0.024,-0.054l-0.024,-0.054l-0.024,-0.054l-0.024,-0.06l-0.024,-0.054l-0.018,-0.054l-0.024,-0.054l-0.024,-0.054l-0.024,-0.054l-0.025,-0.062l-0.024,-0.054l-0.024,-0.054l-0.024,-0.054l-0.017,-0.054l-0.024,-0.054l-0.024,-0.06l-0.024,-0.054l-0.024,-0.054l-0.024,-0.054l-0.024,-0.054l-0.024,-0.054l-0.018,-0.06l-0.024,-0.054l-0.024,-0.054l-0.024,-0.054l-0.024,-0.054l-0.024,-0.054l-0.024,-0.06l-0.024,-0.054l-0.018,-0.054l-0.024,-0.054l-0.024,-0.054l-0.024,-0.054l-0.024,-0.06l-0.015,-0.044l-0.024,-0.054l-0.024,-0.054l-0.017,-0.054l-0.024,-0.054l-0.024,-0.054l-0.024,-0.06l-0.024,-0.054l-0.024,-0.054l-0.024,-0.054l-0.024,-0.054l-0.018,-0.054l-0.024,-0.06l-0.024,-0.054l-0.024,-0.054l-0.024,-0.054l-0.024,-0.054l-0.024,-0.054l-0.024,-0.06l-0.018,-0.054l-0.024,-0.054l-0.024,-0.054l-0.024,-0.054l-0.024,-0.054l-0.024,-0.06l-0.024,-0.054l-0.024,-0.054l-0.017,-0.054l-0.024,-0.054l-0.024,-0.054l-0.024,-0.06l-0.024,-0.054l-0.024,-0.054l-0.024,-0.054l-0.024,-0.054l-0.01,-0.044l-0.024,-0.06l-0.024,-0.054l-0.024,-0.054l-0.024,-0.054h-0.06h-0.054h-0.068h-0.059h-0.059h-0.054h-0.06h-0.06h-0.059h-0.054h-0.06h-0.06h-0.057h-0.054h-0.06h-0.059h-0.059h-0.055h-0.059l-0.024,0.054l-0.024,0.054l-0.024,0.054l-0.018,0.06l-0.024,0.053l-0.024,0.054l-0.024,0.054l-0.024,0.054l-0.024,0.054l-0.024,0.06l-0.024,0.054l-0.017,0.054l-0.024,0.054l-0.024,0.054l-0.024,0.054l-0.024,0.06l-0.024,0.054l-0.024,0.054l-0.024,0.054l-0.018,0.054l-0.024,0.054l-0.024,0.06l-0.024,0.054l-0.024,0.054l-0.024,0.054l-0.024,0.054l-0.024,0.054l-0.018,0.06l-0.024,0.054l-0.024,0.054l-0.024,0.054l-0.024,0.054l-0.024,0.054l-0.024,0.06l-0.024,0.054l-0.018,0.054l-0.024,0.054l-0.024,0.054l-0.024,0.054l-0.024,0.054l-0.024,0.06l-0.024,0.054l-0.024,0.054l-0.018,0.054l-0.024,0.054l-0.024,0.054l-0.024,0.06l-0.024,0.054l-0.024,0.054l-0.024,0.054l-0.024,0.054l-0.018,0.054l-0.024,0.06l-0.024,0.054l-0.024,0.054l-0.024,0.054l-0.024,0.054l-0.024,0.054l-0.024,0.06l-0.025,0.053l-0.024,0.054l-0.024,0.054l-0.024,0.054l-0.024,0.054l-0.024,0.06l-0.008,0.038l-0.025,0.054l-0.018,0.054l-0.024,0.054l-0.024,0.054l-0.024,0.06l-0.024,0.054l-0.024,0.054l-0.024,0.054l-0.024,0.054l-0.018,0.054l-0.024,0.06l-0.024,0.054l-0.024,0.054l-0.024,0.054h0.059h0.06h0.059h0.06h0.066h0.059h0.059h0.06h0.06h0.059h0.059h0.06h0.06h0.059h0.066h0.059h0.06h0.059h0.059h0.059l0.024,-0.054l0.018,-0.054l0.024,-0.054l0.024,-0.06l0.018,-0.054l0.024,-0.054l0.024,-0.054l0.018,-0.054l0.024,-0.054l0.024,-0.054l0.017,-0.054l0.024,-0.06l0.024,-0.054l0.018,-0.054l0.024,-0.054h0.059h0.06h0.06h0.059h0.054h0.059h0.059h0.059h0.06h0.06h0.059h0.059h0.06h0.06h0.054h0.059h0.06h0.059h0.063h0.06h0.059h0.06h0.059h0.06h0.054h0.059h0.059h0.059h0.059l0.024,0.054l0.018,0.054l0.024,0.054l0.024,0.06l0.018,0.054l0.024,0.054l0.024,0.054l0.017,0.054l0.024,0.054l0.024,0.054l0.017,0.054l0.024,0.06l0.024,0.054l0.018,0.054l0.024,0.054h0.06h0.059h0.054h0.059h0.06h0.06h0.059h0.054h0.06h0.06h0.059h0.059h0.06h0.054h0.06h0.059h0.06h0.059h0.054h0.06h0.059l-0.024,-0.054zM19.997,30.924h-0.06h-0.059h-0.06h-0.059h-0.059h-0.06h-0.059h-0.054h-0.06h-0.06h-0.059h-0.059h-0.06h-0.06h-0.059h-0.06l0.024,-0.054l0.018,-0.054l0.024,-0.06l0.024,-0.054l0.017,-0.054l0.024,-0.054l0.024,-0.06l0.024,-0.054l0.018,-0.054l0.024,-0.054l0.024,-0.054l0.017,-0.06l0.024,-0.054l0.024,-0.054l0.018,-0.054l0.024,-0.054l0.024,-0.06l0.024,-0.054l0.017,-0.054l0.024,-0.054l0.024,-0.06l0.018,-0.054l0.024,-0.054l0.024,0.054l0.018,0.054l0.024,0.06l0.024,0.054l0.018,0.054l0.024,0.054l0.024,0.06l0.018,0.054l0.024,0.054l0.024,0.054l0.017,0.054l0.026,0.059l0.018,0.054l0.024,0.054l0.024,0.054l0.018,0.054l0.024,0.06l0.024,0.054l0.018,0.054l0.024,0.054l0.024,0.06l0.018,0.054l0.024,0.054l-0.065,0.001z" fill="#ffffff" fill-rule="nonzero"></path><path d="M16.603,30.128h-0.059h-0.06h-0.059h-0.06h-0.06h-0.059h-0.06h-0.06h-0.06h-0.06h-0.059h-0.059h-0.06h-0.06h-0.059h-0.06h-0.06h-0.059h-0.06h-0.059h-0.06h-0.06h-0.06h-0.059h-0.06h-0.06h-0.059h-0.06h-0.059h-0.06h-0.06v0.06v0.053v0.06v0.06v0.06v0.054v0.06v0.06v0.06v0.053v0.06v0.06v0.06v0.055v0.06h0.06h0.054h0.06h0.059h0.06h0.053h0.06h0.06h0.059h0.054h0.059h0.06h0.06h0.053h0.06v0.059v0.06v0.06v0.06v0.066v0.06v0.06v0.06v0.06l-0.047,0.03l-0.043,0.023l-0.053,0.025l-0.048,0.023l-0.053,0.024l-0.054,0.013l-0.059,0.017l-0.06,0.012l-0.06,0.012l-0.059,0.006l-0.066,0.006l-0.066,0.006h-0.071h-0.066l-0.066,-0.006l-0.059,-0.006l-0.059,-0.012l-0.06,-0.012l-0.06,-0.018l-0.06,-0.018l-0.054,-0.024l-0.053,-0.023l-0.054,-0.025l-0.048,-0.03l-0.047,-0.03l-0.048,-0.035l-0.048,-0.036l-0.041,-0.037l-0.037,-0.042l-0.041,-0.041l-0.036,-0.042l-0.036,-0.048l-0.03,-0.048l-0.029,-0.048l-0.03,-0.054l-0.024,-0.054l-0.024,-0.06l-0.017,-0.048l-0.018,-0.053l-0.012,-0.054l-0.013,-0.055l-0.012,-0.053l-0.005,-0.06l-0.006,-0.054l-0.006,-0.06v-0.06v-0.012v-0.066l0.006,-0.06l0.006,-0.06l0.012,-0.066l0.011,-0.053l0.012,-0.06l0.018,-0.06l0.024,-0.054l0.018,-0.054l0.024,-0.054l0.03,-0.047l0.029,-0.055l0.03,-0.047l0.03,-0.043l0.036,-0.047l0.042,-0.043l0.036,-0.041l0.041,-0.036l0.042,-0.036l0.042,-0.036l0.048,-0.03l0.047,-0.03l0.048,-0.03l0.054,-0.024l0.053,-0.024l0.054,-0.018l0.054,-0.018l0.053,-0.012l0.06,-0.012l0.054,-0.006l0.059,-0.006h0.06h0.066l0.065,0.006l0.066,0.006l0.06,0.006l0.059,0.012l0.06,0.012l0.054,0.012l0.053,0.018l0.054,0.018l0.047,0.018l0.048,0.024l0.048,0.024l0.053,0.03l0.049,0.03l0.047,0.03l0.048,0.03l0.047,0.036l0.048,0.03l0.048,0.042l0.048,0.035l0.036,-0.047l0.041,-0.043l0.036,-0.047l0.042,-0.048l0.035,-0.048l0.036,-0.042l0.042,-0.048l0.036,-0.047l0.042,-0.049l0.035,-0.042l0.036,-0.047l0.042,-0.049l0.035,-0.041l0.036,-0.048l0.042,-0.049l0.036,-0.047l0.042,-0.042l0.036,-0.048l-0.048,-0.036l-0.048,-0.042l-0.048,-0.036l-0.048,-0.036l-0.047,-0.03l-0.048,-0.036l-0.053,-0.03l-0.048,-0.03l-0.053,-0.03l-0.048,-0.03l-0.054,-0.024l-0.054,-0.029l-0.053,-0.025l-0.054,-0.024l-0.054,-0.023l-0.053,-0.018l-0.049,-0.019l-0.053,-0.011l-0.054,-0.018l-0.054,-0.012l-0.053,-0.012l-0.054,-0.012l-0.059,-0.013l-0.06,-0.011l-0.054,-0.006l-0.065,-0.013l-0.06,-0.005h-0.059l-0.066,-0.006l-0.066,-0.006h-0.066h-0.065h-0.059h-0.066l-0.06,0.006l-0.06,0.006l-0.059,0.005l-0.06,0.007l-0.06,0.012l-0.059,0.006l-0.06,0.012l-0.053,0.018l-0.06,0.012l-0.054,0.018l-0.053,0.012l-0.054,0.023l-0.06,0.018l-0.047,0.019l-0.06,0.03l-0.054,0.023l-0.054,0.025l-0.053,0.03l-0.054,0.03l-0.054,0.03l-0.047,0.03l-0.048,0.029l-0.048,0.036l-0.048,0.03l-0.047,0.036l-0.042,0.036l-0.048,0.042l-0.041,0.036l-0.042,0.042l-0.042,0.041l-0.036,0.042l-0.041,0.043l-0.036,0.042l-0.036,0.048l-0.036,0.047l-0.036,0.048l-0.03,0.048l-0.03,0.048l-0.029,0.048l-0.03,0.048l-0.03,0.054l-0.023,0.054l-0.024,0.054l-0.025,0.054l-0.023,0.054l-0.024,0.06l-0.018,0.053l-0.018,0.06l-0.018,0.055l-0.011,0.059l-0.019,0.06l-0.011,0.054l-0.007,0.06l-0.012,0.059l-0.005,0.066l-0.006,0.06v0.06l-0.006,0.066v0.06v0.012v0.06v0.066l0.006,0.06l0.006,0.06l0.005,0.06l0.007,0.053l0.012,0.06l0.006,0.055l0.012,0.059l0.018,0.054l0.012,0.06l0.017,0.054l0.012,0.054l0.024,0.054l0.018,0.048l0.023,0.054l0.025,0.053l0.024,0.055l0.023,0.053l0.03,0.048l0.03,0.054l0.029,0.048l0.03,0.048l0.036,0.048l0.03,0.048l0.036,0.042l0.036,0.048l0.036,0.041l0.041,0.043l0.042,0.042l0.042,0.035l0.042,0.043l0.041,0.035l0.042,0.037l0.048,0.035l0.048,0.036l0.047,0.036l0.048,0.03l0.048,0.03l0.053,0.03l0.048,0.03l0.054,0.03l0.054,0.023l0.053,0.025l0.054,0.024l0.059,0.023l0.054,0.018l0.054,0.024l0.054,0.018l0.059,0.012l0.054,0.018l0.06,0.012l0.053,0.013l0.06,0.011l0.06,0.012l0.06,0.007l0.059,0.005l0.059,0.006l0.066,0.006l0.059,0.006h0.06h0.066h0.065h0.066l0.065,-0.006l0.06,-0.006l0.066,-0.006l0.059,-0.005l0.066,-0.007l0.06,-0.006l0.06,-0.012l0.059,-0.012l0.053,-0.012l0.06,-0.011l0.054,-0.019l0.06,-0.018l0.053,-0.018l0.054,-0.018l0.054,-0.017l0.053,-0.025l0.06,-0.023l0.054,-0.024l0.06,-0.024l0.053,-0.03l0.054,-0.024l0.054,-0.03l0.053,-0.03l0.054,-0.03l0.047,-0.03l0.048,-0.03l0.048,-0.036l0.048,-0.03l0.047,-0.036l0.042,-0.03l0.048,-0.035l0.041,-0.037v-0.059v-0.06v-0.06v-0.054v-0.06v-0.06v-0.06v-0.06v-0.06v-0.053v-0.06v-0.06v-0.06v-0.06v-0.06v-0.06v-0.054v-0.06v-0.06v-0.059v-0.06v-0.06v-0.06v-0.054v-0.06v-0.06v-0.06v-0.06v-0.06v-0.054v-0.06v-0.059v-0.06h-0.059z" fill="#ffffff" fill-rule="nonzero"></path></g></g></svg>