<svg width="49" height="13" viewBox="0 0 49 13" fill="none" xmlns="http://www.w3.org/2000/svg">
<path fill-rule="evenodd" clip-rule="evenodd" d="M7.04432 12.1796C3.28077 12.1786 0.766174 9.51286 0.766174 6.28037C0.766174 3.04762 3.28718 0.351145 7.03894 0.359608H42.4934C46.2452 0.351145 48.7662 3.04762 48.7662 6.28037C48.7662 9.51286 46.2511 12.1786 42.4873 12.1796H7.04432Z" fill="#CC2131"/>
<path fill-rule="evenodd" clip-rule="evenodd" d="M7.05611 1.81403C4.07662 1.81916 2.24731 3.8101 2.24731 6.27242C2.24731 8.73449 4.06482 10.7411 7.05611 10.73H42.4754C45.4665 10.7411 47.285 8.73449 47.285 6.27242C47.285 3.8101 45.4554 1.81941 42.4754 1.81403H7.05611Z" fill="white"/>
<path fill-rule="evenodd" clip-rule="evenodd" d="M5.52827 3.47747H7.26162L9.66179 7.35728L9.6605 3.47747H11.3808V9.04226H9.66281L7.25059 5.16219V9.04226H5.5275L5.52827 3.47747ZM20.7369 4.05041H22.4123V4.79903H23.3187V5.34864H22.4123L22.4133 9.04226H20.7369L20.7377 5.34864H19.8279V4.79955H20.7382L20.7369 4.05041ZM12.3393 5.34197H14.0134V9.04226H12.3393V5.34197ZM12.3357 3.47644H14.0134V4.61412H12.3357V3.47644ZM42.3459 7.16236C42.3459 7.16236 42.3448 7.72094 42.3448 7.94587C42.3448 8.53548 41.9967 8.77938 41.6603 8.77938C41.3255 8.77938 40.9748 8.53548 40.9748 7.94587C40.9748 7.72094 40.9758 7.14851 40.9758 7.14851C40.9758 7.14851 40.9774 6.60147 40.9774 6.37655C40.9774 5.78925 41.3265 5.54766 41.6603 5.54766C41.9941 5.54766 42.3448 5.78925 42.3448 6.37655C42.3448 6.60147 42.3448 7.01567 42.3459 7.16493V7.16236ZM41.6734 5.0891C40.3229 5.0891 39.2281 6.01955 39.2281 7.16749C39.2281 8.31466 40.3231 9.24486 41.6734 9.24486C43.0255 9.24486 44.1203 8.31466 44.1203 7.16749C44.1203 6.01955 43.0255 5.0891 41.6734 5.0891ZM37.0304 3.47747H38.6824V9.04123H37.0278L37.0268 8.82836C36.3869 9.22999 35.6629 9.22896 35.0995 8.96711C34.9486 8.89658 33.9544 8.41956 33.9544 7.13287C33.9544 6.15522 34.877 5.08909 36.0826 5.19476C36.48 5.23015 36.762 5.3748 37.0301 5.52483L37.0304 3.47747ZM37.0424 7.17339V6.51222C37.0424 5.93979 36.6476 5.79412 36.3869 5.79412C36.1198 5.79412 35.7298 5.93979 35.7298 6.51222C35.7298 6.70098 35.7309 7.17185 35.7309 7.17185C35.7309 7.17185 35.7298 7.63221 35.7298 7.82943C35.7298 8.40135 36.1198 8.55061 36.3869 8.55061C36.6476 8.55061 37.0424 8.40135 37.0424 7.82943V7.17339ZM17.9319 5.17091C18.5574 5.15373 19.8279 5.5633 19.8187 7.02874C19.8169 7.28829 19.8182 9.04148 19.8182 9.04148H18.1551V6.61147C18.1551 6.28858 17.8465 5.92979 17.3908 5.92979C16.9344 5.92979 16.5957 6.28858 16.5957 6.61147L16.5975 9.04148H14.9352L14.9339 5.34146L16.5973 5.34017C16.5973 5.34017 16.5955 5.63819 16.5973 5.72898C16.9579 5.3846 17.4333 5.18581 17.9319 5.17091ZM31.5368 5.17091C32.1613 5.15373 33.4315 5.5633 33.4236 7.02874C33.421 7.28829 33.422 9.04148 33.422 9.04148H31.759V6.61147C31.759 6.28858 31.4508 5.92979 30.9947 5.92979C30.5385 5.92979 30.1988 6.28858 30.1988 6.61147L30.2014 9.04148H28.5396L28.5406 5.34146L30.2014 5.34017C30.2014 5.34017 30.1988 5.63819 30.2014 5.72898C30.5622 5.38436 31.0379 5.18555 31.5368 5.17091ZM24.8784 6.63148C24.8753 6.30782 24.882 6.09136 24.9882 5.90517C25.1201 5.67743 25.3605 5.56894 25.5781 5.56792H25.577C25.7961 5.56894 26.035 5.67743 26.1659 5.90517C26.2721 6.09111 26.2782 6.30782 26.2757 6.63148H24.8784ZM26.2685 7.74762C26.2685 7.74762 26.27 7.76403 26.27 7.97254C26.27 8.64935 25.8246 8.80015 25.5781 8.80015C25.3305 8.80015 24.8771 8.64935 24.8771 7.97254C24.8771 7.76916 24.8797 7.20827 24.8797 7.20827C24.8797 7.20827 28.0321 7.2093 28.0321 7.20827C28.0321 6.06033 26.9243 5.10961 25.5627 5.10961C24.2018 5.10961 23.0978 6.04007 23.0978 7.18673C23.0978 8.33492 24.2018 9.26538 25.5627 9.26538C26.6921 9.26538 27.6457 8.62063 27.9379 7.74608L26.2685 7.74762ZM44.2368 4.8016H44.0438V3.5344H44.5274C44.8261 3.5344 44.9749 3.64494 44.9749 3.89448C44.9749 4.12094 44.8325 4.21968 44.6457 4.24353L45.0059 4.8016H44.7914L44.4566 4.25199H44.2368V4.8016ZM44.4661 4.08914C44.629 4.08914 44.7732 4.07785 44.7732 3.88294C44.7732 3.72624 44.6308 3.69674 44.4982 3.69674H44.2365V4.08914H44.4661Z" fill="#CC2131"/>
<path fill-rule="evenodd" clip-rule="evenodd" d="M43.3521 4.16452C43.3521 3.53412 43.8642 3.06915 44.4687 3.06915C45.068 3.06915 45.5786 3.53438 45.5786 4.16452C45.5786 4.80132 45.068 5.26603 44.4687 5.26603C43.8642 5.26603 43.3521 4.80158 43.3521 4.16452ZM44.4687 5.08292C44.9662 5.08292 45.3577 4.6936 45.3577 4.16452C45.3577 3.64492 44.9664 3.25201 44.4687 3.25201C43.9661 3.25201 43.5738 3.64492 43.5738 4.16452C43.5738 4.69386 43.9661 5.08292 44.4687 5.08292Z" fill="#CC2131"/>
</svg>
