<svg width="48" height="48" viewBox="0 0 48 48" fill="none" xmlns="http://www.w3.org/2000/svg">
<path d="M3.8545 30.0403C6.45061 38.6946 14.4813 45 23.9859 45C35.5911 45 44.9992 35.5977 44.9992 24C44.9992 12.402 35.5911 3 23.9859 3C12.8495 3 3.73726 11.6576 3.01758 22.6048C3.01758 25.75 3.01758 27.0625 3.8545 30.0403Z" fill="url(#paint0_linear_2_39)"/>
<path d="M22.9059 18.8444L17.7639 26.3092C16.5517 26.2542 15.3315 26.5971 14.3186 27.2628L3.02741 22.6176C3.02741 22.6176 2.76614 26.9131 3.85496 30.1144L11.8372 33.4061C12.238 35.196 13.4667 36.7661 15.2794 37.5213C18.2452 38.7597 21.6649 37.3482 22.8987 34.383C23.2198 33.6078 23.3695 32.795 23.3478 31.9838L30.8856 26.7328C35.2885 26.7328 38.8671 23.1458 38.8671 18.7406C38.8671 14.3351 35.2885 10.7512 30.8856 10.7512C26.6329 10.7512 22.6675 14.4619 22.9059 18.8444ZM21.6703 33.8675C20.7154 36.1586 18.081 37.2454 15.7909 36.2919C14.7345 35.8521 13.9369 35.0463 13.4768 34.0855L16.075 35.1616C17.7639 35.8647 19.7014 35.0643 20.4034 33.3771C21.1077 31.6881 20.3088 29.7486 18.6208 29.0456L15.9349 27.9333C16.9713 27.5405 18.1495 27.526 19.2504 27.9838C20.3601 28.4452 21.2212 29.3142 21.6775 30.4245C22.134 31.535 22.1322 32.7606 21.6703 33.8675ZM30.8856 24.0651C27.9546 24.0651 25.5682 21.6767 25.5682 18.7406C25.5682 15.8069 27.9546 13.4178 30.8856 13.4178C33.8185 13.4178 36.2047 15.8069 36.2047 18.7406C36.2047 21.6767 33.8185 24.0651 30.8856 24.0651ZM26.9011 18.7325C26.9011 16.5239 28.6905 14.7324 30.8946 14.7324C33.1006 14.7324 34.8898 16.5239 34.8898 18.7325C34.8898 20.9414 33.1006 22.7312 30.8946 22.7312C28.6905 22.7312 26.9011 20.9414 26.9011 18.7325Z" fill="white"/>
<defs>
<linearGradient id="paint0_linear_2_39" x1="24.0084" y1="3" x2="24.0084" y2="45" gradientUnits="userSpaceOnUse">
<stop stop-color="#111D2E"/>
<stop offset="0.21248" stop-color="#051839"/>
<stop offset="0.40695" stop-color="#0A1B48"/>
<stop offset="0.5811" stop-color="#132E62"/>
<stop offset="0.7376" stop-color="#144B7E"/>
<stop offset="0.87279" stop-color="#136497"/>
<stop offset="1" stop-color="#1387B8"/>
</linearGradient>
</defs>
</svg>
