<svg width="48" height="48" viewBox="0 0 48 48" fill="none" xmlns="http://www.w3.org/2000/svg">
<path opacity="0.852" d="M24 45C35.598 45 45 35.598 45 24C45 12.402 35.598 3 24 3C12.402 3 3 12.402 3 24C3 35.598 12.402 45 24 45Z" fill="url(#paint0_radial_2_51)"/>
<path d="M10.1271 39.7999C10.0984 39.7789 10.0691 39.7524 10.0397 39.7201C9.4961 39.2256 8.61068 38.4456 7.68543 37.2666C6.88635 35.5333 7.33931 32.622 9.30579 28.5112C12.0804 22.7113 16.5196 16.8226 18.3397 14.7337C17.8219 14.156 16.2178 12.5738 13.9449 10.8672C11.672 9.16051 10.0161 8.9857 9.43896 9.08941C9.97169 8.51164 11.2147 7.42278 12.2579 6.68946C15.4897 5.08948 21.4621 7.79314 24.0222 9.33385V19.9336C17.4963 24.9558 11.4589 32.7112 10.238 35.7333C9.30627 38.04 9.67463 39.3192 10.0397 39.7201C10.0699 39.7476 10.099 39.7741 10.1271 39.7999Z" fill="url(#paint1_linear_2_51)"/>
<path d="M10.1271 39.7996C10.0984 39.7786 10.0691 39.7521 10.0397 39.7198C9.49608 39.2253 8.61068 38.4453 7.68543 37.2663C6.88635 35.533 7.33931 32.6215 9.30579 28.5109C12.527 21.7774 18.3398 14.7334 18.3398 14.7334C18.3398 14.7334 19.3778 17.3107 21.7332 21.7774C15.6666 27.1551 11.4588 32.7108 10.238 35.733C9.30627 38.0397 9.67461 39.3189 10.0397 39.7198C10.0699 39.7473 10.099 39.7738 10.1271 39.7996Z" fill="url(#paint2_linear_2_51)"/>
<path d="M37.9169 39.7999C37.9455 39.7789 37.9749 39.7524 38.0043 39.7201C38.5479 39.2256 39.4332 38.4456 40.3586 37.2666C41.1576 35.5333 40.7046 32.622 38.7381 28.5112C35.9636 22.7113 31.5243 16.8226 29.7042 14.7337C30.222 14.156 31.8261 12.5738 34.0991 10.8672C36.372 9.16051 38.0279 8.9857 38.6051 9.08941C38.0723 8.51164 36.8292 7.42278 35.786 6.68946C32.5542 5.08948 26.5818 7.79314 24.0218 9.33385V19.9336C30.5477 24.9558 36.5852 32.7112 37.8059 35.7333C38.7377 38.04 38.3694 39.3192 38.0043 39.7201C37.974 39.7476 37.9449 39.7741 37.9169 39.7999Z" fill="url(#paint3_linear_2_51)"/>
<path d="M37.9169 39.7996C37.9455 39.7786 37.9749 39.7521 38.0043 39.7198C38.5479 39.2253 39.4332 38.4453 40.3586 37.2663C41.1576 35.533 40.7046 32.6215 38.7381 28.5109C35.517 21.7774 29.7042 14.7334 29.7042 14.7334C29.7042 14.7334 28.6662 17.3107 26.3108 21.7774C32.3774 27.1551 36.5852 32.7108 37.8059 35.733C38.7377 38.0397 38.3694 39.3189 38.0043 39.7198C37.9742 39.7473 37.9449 39.7738 37.9169 39.7996Z" fill="url(#paint4_linear_2_51)"/>
<defs>
<radialGradient id="paint0_radial_2_51" cx="0" cy="0" r="1" gradientUnits="userSpaceOnUse" gradientTransform="translate(24 21.75) rotate(90.0548) scale(23.25)">
<stop stop-color="#FAFAFA"/>
<stop offset="0.499976" stop-color="#EFEFEF"/>
<stop offset="0.828794" stop-color="#C0BEC0"/>
<stop offset="1" stop-color="#879288"/>
</radialGradient>
<linearGradient id="paint1_linear_2_51" x1="19.4887" y1="7.08883" x2="19.8444" y2="19.1778" gradientUnits="userSpaceOnUse">
<stop stop-color="#008B00"/>
<stop offset="1" stop-color="#6CC329"/>
</linearGradient>
<linearGradient id="paint2_linear_2_51" x1="15.2222" y1="19" x2="19.311" y2="24.6" gradientUnits="userSpaceOnUse">
<stop stop-color="#008C00"/>
<stop offset="1" stop-color="#48BF21"/>
</linearGradient>
<linearGradient id="paint3_linear_2_51" x1="28.5552" y1="7.08883" x2="28.1996" y2="19.1778" gradientUnits="userSpaceOnUse">
<stop stop-color="#008B00"/>
<stop offset="1" stop-color="#6CC329"/>
</linearGradient>
<linearGradient id="paint4_linear_2_51" x1="32.8218" y1="19" x2="28.733" y2="24.6" gradientUnits="userSpaceOnUse">
<stop stop-color="#008C00"/>
<stop offset="1" stop-color="#48BF21"/>
</linearGradient>
</defs>
</svg>
