<svg width="270" height="370" viewBox="0 0 270 370" fill="none" xmlns="http://www.w3.org/2000/svg">
<path fill-rule="evenodd" clip-rule="evenodd" d="M132.746 152.208H146.005V148.437L147.437 150.017V152.208H149.425L150.798 153.721H147.429V166.87H160.65V162.047L160.674 162.059L160.724 162.079L160.961 162.184L160.992 162.198L161.152 162.267C161.367 162.356 161.564 162.434 161.755 162.505L161.803 162.523L162.076 162.622H162.1L162.15 162.639V166.862H175.348V162.484C175.399 162.464 175.454 162.447 175.508 162.425L175.659 162.367L175.698 162.354C175.844 162.303 175.99 162.245 176.134 162.184L176.339 162.099C176.485 162.037 176.63 161.974 176.772 161.906V185.005H175.34V168.383H147.418V176.201H145.986V168.383H132.741V183.077H131.309V153.721H118.476V166.852H124.572V168.366H102.734V162.975L102.782 162.961H102.806L103.09 162.876C103.278 162.819 103.467 162.757 103.668 162.688L103.717 162.673L103.926 162.6L104.163 162.513L104.211 162.496H104.235V166.869H117.045V153.721H114.997L116.306 152.208H117.049V151.35L118.481 149.693V152.208H131.314V145.254H132.746V152.208ZM132.746 166.869H145.991V153.721H132.746V166.869Z" fill="url(#paint0_linear_11_45)"/>
<path d="M75.7234 166.867H88.511V168.382H69.1869V166.867H74.291V153.77H75.7234V166.867Z" fill="url(#paint1_linear_11_45)"/>
<path d="M191.411 152.257H195.484V153.772H191.411V165.28H189.979V153.765H186.129C186.148 153.736 186.166 153.707 186.183 153.678C186.286 153.521 186.389 153.351 186.49 153.181L186.548 153.085C186.669 152.88 186.788 152.671 186.904 152.461L186.965 152.347V152.335C186.981 152.308 186.995 152.277 187.011 152.25H189.974V137.759H191.406L191.411 152.257Z" fill="url(#paint2_linear_11_45)"/>
<path d="M83.5448 110.031H75.7234V122.998H80.287L79.9068 124.513H75.7234V139.114H74.291V124.513H67.4594V122.998H74.291V110.031H56V108.517H83.925L83.5448 110.031Z" fill="url(#paint3_linear_11_45)"/>
<path fill-rule="evenodd" clip-rule="evenodd" d="M176.777 51.7964H178.987V53.311H176.777V66.0011H189.658V67.5157H176.777V80.0854H189.974V73.547H191.406V80.0871H202.997V81.8171H191.406V108.519H213.01V110.033H191.414V122.986H204.521V124.501H186.074L185.694 122.986H189.985V110.021H182.436L182.056 108.507H189.985V95.9437H176.511C176.304 95.7131 176.094 95.4841 175.884 95.2653C175.715 95.0957 175.542 94.9261 175.367 94.7565V81.7899H162.182V89.3019H160.656V81.7899H152.142V80.1566H160.644V75.1583H162.15V80.0854H175.345V67.514H170.451C170.362 66.9916 170.213 66.483 170.007 65.9994H175.345V53.311H168.744L169.334 52.4918C169.494 52.2701 169.641 52.0378 169.772 51.7964H175.345V46.045H176.777V51.7964ZM176.79 94.441H189.977V81.8171H176.79V94.441Z" fill="url(#paint4_linear_11_45)"/>
<path d="M104.244 66.0486H114.269V67.5632H104.244V67.5751H102.811V67.5853H89.9514V80.2364H104.236V81.79H89.9322V95.4468C89.7766 95.6164 89.621 95.786 89.4702 95.9557H75.7235V101.242H74.291V95.9557H62.798V94.4411H74.291V88.2605H75.7235V94.4427H88.5078V67.5157H75.7235V80.2822H74.291V65.9893H75.7235V65.9943H88.5078V53.3059H74.2798V51.7913H89.9514V65.9994H104.171V65.9672H102.739V44.5084H104.244V66.0486Z" fill="url(#paint5_linear_11_45)"/>
<path d="M132.746 69.0998V80.1176H138.351V81.7899H132.746V89.4376L131.314 89.4291V81.7899H125.517V80.1566H131.314V69.0998H132.746Z" fill="url(#paint6_linear_11_45)"/>
<path d="M147.423 84.061H147.41V89.3663L145.978 89.3731V81.6712H145.991V75.1582H147.423V84.061Z" fill="url(#paint7_linear_11_45)"/>
<path d="M133.315 97.7621C142.174 97.7621 149.356 105.356 149.356 114.723C149.356 124.09 142.174 131.684 133.315 131.684C124.457 131.684 117.275 124.09 117.275 114.723C117.275 105.356 124.457 97.7621 133.315 97.7621ZM133.315 102.002C126.671 102.002 121.285 107.698 121.285 114.723C121.285 121.748 126.671 127.444 133.315 127.444C139.96 127.444 145.346 121.748 145.346 114.723C145.346 107.698 139.96 102.002 133.315 102.002Z" fill="#1E1E1E"/>
<path d="M148.183 59.5323V40.911H121.235V59.5323H148.183Z" fill="#1D0B47"/>
<path d="M150.208 62.1291C150.139 62.1901 150.068 62.2461 149.994 62.2987C149.866 62.394 149.73 62.4785 149.589 62.5514C149.374 62.663 149.149 62.749 148.916 62.8075C148.676 62.8669 148.43 62.8969 148.183 62.8974H146.273V65.8197H163.757L158.528 58.6826L158.368 58.452L157.038 56.6388L163.836 47.1984H151.374V59.5374C151.375 60.4162 151.05 61.2603 150.469 61.8882C150.387 61.974 150.299 62.0544 150.208 62.1291Z" fill="#1D0B47"/>
<path fill-rule="evenodd" clip-rule="evenodd" d="M163.48 96.1796C166.349 96.1842 169.136 97.1894 171.409 99.0394C173.683 100.889 175.315 103.481 176.054 106.412L184.121 138.526C184.148 138.636 184.174 138.745 184.199 138.855L184.223 138.958L184.246 139.063C184.264 139.149 184.282 139.234 184.299 139.319C184.303 139.338 184.307 139.357 184.311 139.376C184.32 139.419 184.328 139.462 184.336 139.505C184.381 139.739 184.422 139.972 184.457 140.205C184.424 139.984 184.385 139.763 184.343 139.542C184.385 139.763 184.422 139.983 184.454 140.203C184.566 140.944 184.627 141.693 184.637 142.444C184.642 142.732 184.637 143.014 184.626 143.292C184.619 143.451 184.61 143.609 184.599 143.765C184.581 144.013 184.557 144.271 184.526 144.522C184.506 144.703 184.48 144.881 184.453 145.061C184.375 145.552 184.274 146.038 184.149 146.518C184.128 146.596 184.107 146.672 184.087 146.747C184.039 146.932 183.984 147.113 183.927 147.294C183.898 147.388 183.867 147.479 183.835 147.571C183.346 148.994 182.651 150.329 181.774 151.526C181.34 152.122 180.867 152.684 180.358 153.209C180.208 153.363 180.056 153.514 179.901 153.661C179.815 153.743 179.727 153.824 179.639 153.905C179.49 154.039 179.34 154.17 179.187 154.298C179.01 154.446 178.829 154.589 178.647 154.728C178.625 154.744 178.604 154.761 178.582 154.777C178.344 154.956 178.1 155.128 177.852 155.291C177.747 155.361 177.641 155.429 177.534 155.495C177.315 155.632 177.092 155.762 176.867 155.887C176.765 155.943 176.662 155.998 176.558 156.052C176.517 156.074 176.476 156.095 176.434 156.116C176.305 156.182 176.175 156.245 176.044 156.307C176.02 156.318 175.995 156.33 175.97 156.342C175.803 156.419 175.634 156.494 175.464 156.564C175.459 156.567 175.453 156.569 175.447 156.571C175.411 156.587 175.374 156.602 175.337 156.617C175.283 156.639 175.228 156.661 175.174 156.682C175.165 156.686 175.157 156.689 175.149 156.692C175.053 156.729 174.957 156.766 174.86 156.801C174.85 156.805 174.839 156.809 174.828 156.813C174.736 156.846 174.643 156.878 174.55 156.91C174.519 156.92 174.487 156.931 174.456 156.941C174.39 156.963 174.324 156.985 174.257 157.006C174.195 157.025 174.132 157.045 174.069 157.064C173.539 157.222 172.999 157.351 172.453 157.446C172.31 157.471 172.167 157.493 172.024 157.514C171.933 157.527 171.842 157.539 171.75 157.55C171.67 157.56 171.589 157.569 171.507 157.578C171.354 157.594 171.199 157.608 171.045 157.619C170.965 157.625 170.885 157.629 170.805 157.634C170.707 157.639 170.608 157.644 170.51 157.647C170.495 157.647 170.48 157.648 170.465 157.648C170.361 157.651 170.258 157.653 170.154 157.654L170.151 157.654C170.15 157.654 170.15 157.654 170.149 157.654C170.045 157.654 169.941 157.652 169.837 157.65C169.813 157.649 169.788 157.649 169.764 157.649C167.834 157.592 165.937 157.099 164.2 156.202C163.913 156.052 163.63 155.891 163.354 155.72C162.193 155.003 161.133 154.113 160.209 153.076L149.532 141.309C148.727 140.425 147.763 139.722 146.695 139.24C145.662 138.774 144.552 138.525 143.429 138.508L143.32 138.507H122.778C121.582 138.507 120.399 138.77 119.304 139.279C118.214 139.786 117.235 140.526 116.429 141.453C116.425 141.457 116.422 141.461 116.418 141.465L106.558 152.888C105.132 154.563 103.359 155.867 101.377 156.698C99.8234 157.331 98.1724 157.655 96.5072 157.654C92.7911 157.654 89.1719 156.082 86.4515 153.361C86.0911 153.001 85.7464 152.621 85.4193 152.221C85.6519 152.505 85.8936 152.78 86.1436 153.044C85.6954 152.569 85.2737 152.062 84.8826 151.524C82.978 148.931 81.9679 145.727 82.0194 142.444C82.0385 141.203 82.1931 139.969 82.4799 138.766L82.5391 138.526L90.6059 106.412C91.3447 103.481 92.9778 100.889 95.2515 99.0392C96.7534 97.8172 98.4794 96.9639 100.305 96.5239C100.336 96.5164 100.368 96.509 100.399 96.5017L100.413 96.4985C100.452 96.4895 100.49 96.4808 100.529 96.4723L100.445 96.4912C100.488 96.4812 100.532 96.4715 100.576 96.462C100.601 96.4566 100.626 96.451 100.652 96.4455C100.651 96.4459 100.65 96.4459 100.649 96.4461C100.661 96.4437 100.673 96.4413 100.685 96.4388C100.72 96.4315 100.755 96.4243 100.79 96.4172L100.897 96.3964C100.913 96.3935 100.928 96.3908 100.943 96.388C101.138 96.3518 101.334 96.3199 101.531 96.2931C101.552 96.2902 101.573 96.2875 101.593 96.2848C101.717 96.2685 101.841 96.2541 101.965 96.2415C101.969 96.2412 101.973 96.2408 101.977 96.2403L101.98 96.24C102.109 96.2273 102.238 96.2166 102.368 96.2078C102.371 96.2076 102.374 96.2072 102.377 96.2071C102.378 96.2071 102.378 96.2069 102.378 96.2069C102.465 96.2011 102.552 96.1964 102.639 96.1923C102.642 96.1922 102.646 96.192 102.65 96.1918C102.736 96.1879 102.823 96.185 102.909 96.183C102.866 96.184 102.822 96.1854 102.779 96.1869C102.913 96.1823 103.047 96.1798 103.182 96.1796L133.315 96.3289H133.344L163.48 96.1796ZM133.428 129.068C131.31 129.048 129.195 129.058 127.077 129.068H124.272L123.84 129.084C122.682 129.134 121.536 129.348 120.432 129.72C119.317 130.081 118.253 130.594 117.264 131.246C116.261 131.903 115.34 132.689 114.521 133.587L114.213 133.926L113.935 134.25L112.265 136.189L110.049 138.782C107.095 142.244 104.147 145.71 101.204 149.18L100.654 149.827L100.391 150.129L100.118 150.419C99.7483 150.798 99.3533 151.148 98.9357 151.467C98.5212 151.788 98.0859 152.079 97.6332 152.337C97.1788 152.588 96.7095 152.809 96.2281 152.997C95.7456 153.185 95.2501 153.335 94.7459 153.443L93.1804 153.792C92.1379 154.036 91.0919 154.279 90.0525 154.567C91.1224 154.549 92.1859 154.486 93.251 154.425L94.855 154.313C96.5386 154.164 98.1639 153.589 99.5934 152.637C100.079 152.311 100.542 151.948 100.979 151.552L101.3 151.245L101.613 150.924L102.194 150.298C105.264 146.962 108.344 143.639 111.391 140.291L115.955 135.301C116.669 134.558 117.469 133.912 118.335 133.378C118.762 133.114 119.203 132.876 119.655 132.664C120.107 132.46 120.57 132.286 121.041 132.142C121.51 131.998 121.987 131.884 122.469 131.802C122.947 131.727 123.429 131.681 123.912 131.665L124.277 131.653H125.478L127.071 131.662C129.187 131.675 131.298 131.665 133.415 131.675C135.532 131.685 137.648 131.674 139.764 131.662L141.358 131.653H142.56C142.691 131.653 142.803 131.662 142.927 131.662C143.41 131.678 143.892 131.723 144.371 131.797C144.853 131.879 145.331 131.992 145.8 132.137C146.748 132.422 147.658 132.834 148.507 133.365C149.375 133.898 150.176 134.543 150.893 135.286L155.456 140.276C158.512 143.628 161.588 146.952 164.659 150.283L165.239 150.911L165.56 151.231L165.881 151.538C166.318 151.935 166.781 152.298 167.267 152.625C168.221 153.262 169.265 153.733 170.359 154.021C170.898 154.16 171.446 154.255 171.999 154.304L173.603 154.416C174.668 154.477 175.735 154.54 176.808 154.559C175.764 154.27 174.722 154.028 173.678 153.784L172.111 153.434C171.606 153.325 171.11 153.175 170.627 152.987C170.146 152.798 169.676 152.578 169.222 152.325C168.77 152.067 168.335 151.777 167.921 151.455C167.503 151.137 167.107 150.786 166.737 150.407L166.465 150.115L166.202 149.823L165.652 149.177C162.715 145.693 159.765 142.225 156.802 138.772L154.584 136.177L152.633 133.912L152.325 133.573C150.691 131.779 148.655 130.45 146.406 129.709C145.3 129.342 144.153 129.132 142.994 129.084C142.852 129.079 142.699 129.068 142.564 129.068H139.78C137.662 129.068 135.545 129.089 133.428 129.068ZM159.8 119.954C158.907 119.954 158.051 120.33 157.42 120.999C156.789 121.667 156.434 122.573 156.435 123.517C156.435 124.221 156.632 124.91 157.002 125.496C157.373 126.082 157.899 126.538 158.514 126.808C159.129 127.077 159.807 127.148 160.46 127.01C161.114 126.873 161.714 126.534 162.185 126.036C162.656 125.537 162.977 124.903 163.107 124.212C163.237 123.521 163.17 122.805 162.915 122.154C162.66 121.503 162.229 120.947 161.675 120.556C161.121 120.164 160.469 119.955 159.803 119.955L159.8 119.954ZM106.573 105.338C105.977 105.338 105.406 105.589 104.985 106.034C104.564 106.479 104.327 107.083 104.327 107.713V112.676H99.6287C99.0331 112.676 98.4619 112.926 98.0407 113.371C97.6196 113.816 97.383 114.42 97.383 115.05L97.3766 117.092C97.3766 117.722 97.6132 118.326 98.0342 118.771C98.4555 119.217 99.0267 119.467 99.6223 119.467H104.327V124.436C104.327 125.066 104.564 125.67 104.985 126.115C105.406 126.561 105.977 126.811 106.573 126.811H108.497C109.093 126.811 109.664 126.561 110.085 126.115C110.507 125.67 110.743 125.066 110.743 124.436V119.467H115.443C116.039 119.467 116.61 119.217 117.031 118.771C117.452 118.326 117.689 117.722 117.689 117.092V115.057C117.689 114.427 117.452 113.823 117.031 113.378C116.61 112.933 116.039 112.682 115.443 112.682H110.743V107.713C110.743 107.083 110.507 106.479 110.085 106.034C109.664 105.589 109.093 105.338 108.497 105.338H106.573ZM152.856 112.603C151.963 112.604 151.107 112.979 150.476 113.648C149.845 114.316 149.49 115.222 149.491 116.166C149.491 116.871 149.688 117.559 150.058 118.145C150.429 118.731 150.955 119.187 151.57 119.457C152.186 119.726 152.863 119.797 153.516 119.66C154.17 119.522 154.77 119.183 155.241 118.685C155.712 118.187 156.033 117.552 156.163 116.861C156.293 116.17 156.226 115.454 155.971 114.803C155.716 114.152 155.285 113.596 154.731 113.205C154.177 112.813 153.526 112.604 152.859 112.604L152.856 112.603ZM166.752 112.603C166.309 112.603 165.871 112.695 165.462 112.874C165.054 113.053 164.682 113.316 164.369 113.647C164.057 113.977 163.808 114.37 163.639 114.803C163.47 115.235 163.383 115.698 163.383 116.166C163.383 116.871 163.581 117.559 163.951 118.145C164.321 118.731 164.847 119.187 165.463 119.457C166.078 119.726 166.756 119.797 167.409 119.66C168.063 119.522 168.663 119.183 169.134 118.685C169.605 118.187 169.926 117.552 170.056 116.861C170.186 116.17 170.119 115.454 169.864 114.803C169.609 114.152 169.177 113.596 168.623 113.205C168.069 112.813 167.418 112.604 166.752 112.604V112.603ZM159.803 105.257C159.361 105.257 158.923 105.349 158.514 105.528C158.105 105.707 157.733 105.97 157.421 106.301C157.108 106.632 156.86 107.025 156.691 107.457C156.521 107.889 156.434 108.353 156.435 108.821C156.435 109.525 156.632 110.214 157.002 110.799C157.373 111.385 157.899 111.842 158.514 112.111C159.129 112.381 159.807 112.451 160.46 112.314C161.114 112.177 161.714 111.837 162.185 111.339C162.656 110.841 162.977 110.206 163.107 109.515C163.237 108.825 163.17 108.108 162.915 107.458C162.66 106.807 162.229 106.25 161.675 105.859C161.121 105.468 160.469 105.259 159.803 105.259V105.257Z" fill="url(#paint8_linear_11_45)"/>
<path d="M183.789 147.704C183.304 149.079 182.626 150.369 181.777 151.531C181.343 152.125 180.87 152.686 180.361 153.209C180.87 152.684 181.343 152.122 181.777 151.526C182.626 150.366 183.304 149.077 183.789 147.704Z" fill="url(#paint9_linear_11_45)"/>
<path d="M184.513 144.653C184.507 144.698 184.501 144.743 184.495 144.788C184.483 144.878 184.47 144.967 184.456 145.057C184.47 144.966 184.483 144.877 184.495 144.787C184.501 144.742 184.507 144.698 184.513 144.653Z" fill="url(#paint10_linear_11_45)"/>
<path d="M184.602 143.76C184.591 144.009 184.56 144.265 184.53 144.516C184.56 144.269 184.584 144.014 184.602 143.76Z" fill="url(#paint11_linear_11_45)"/>
<path d="M184.629 143.286C184.629 143.446 184.613 143.604 184.602 143.76C184.613 143.604 184.623 143.446 184.629 143.286Z" fill="url(#paint12_linear_11_45)"/>
<path d="M184.64 142.445C184.645 142.727 184.64 143.008 184.629 143.293C184.64 143.008 184.64 142.727 184.64 142.445Z" fill="url(#paint13_linear_11_45)"/>
<path d="M152.856 119.738C153.522 119.738 154.174 119.529 154.727 119.138C155.281 118.746 155.713 118.19 155.968 117.539C156.223 116.889 156.29 116.172 156.16 115.481C156.03 114.791 155.709 114.156 155.238 113.658C154.767 113.16 154.166 112.82 153.513 112.683C152.86 112.546 152.182 112.616 151.567 112.886C150.951 113.155 150.425 113.612 150.055 114.198C149.685 114.783 149.487 115.472 149.487 116.176C149.487 117.121 149.842 118.027 150.474 118.695C151.106 119.363 151.962 119.738 152.856 119.738Z" fill="url(#paint14_linear_11_45)"/>
<path d="M159.8 127.089C160.466 127.089 161.117 126.88 161.671 126.489C162.225 126.097 162.657 125.541 162.912 124.89C163.167 124.239 163.234 123.523 163.104 122.832C162.974 122.141 162.653 121.507 162.182 121.009C161.711 120.51 161.11 120.171 160.457 120.034C159.804 119.896 159.126 119.967 158.511 120.237C157.895 120.506 157.369 120.963 156.999 121.548C156.629 122.134 156.431 122.823 156.431 123.527C156.431 124.472 156.786 125.378 157.418 126.046C158.05 126.714 158.906 127.089 159.8 127.089Z" fill="url(#paint15_linear_11_45)"/>
<path d="M166.752 119.738C167.418 119.738 168.069 119.529 168.623 119.138C169.177 118.746 169.609 118.19 169.864 117.539C170.119 116.889 170.186 116.172 170.056 115.481C169.926 114.791 169.605 114.156 169.134 113.658C168.663 113.16 168.062 112.82 167.409 112.683C166.756 112.546 166.078 112.616 165.463 112.886C164.847 113.155 164.321 113.612 163.951 114.198C163.581 114.783 163.383 115.472 163.383 116.176C163.383 117.121 163.738 118.027 164.37 118.695C165.002 119.363 165.858 119.738 166.752 119.738Z" fill="url(#paint16_linear_11_45)"/>
<path d="M162.795 110.452C163.649 108.701 162.999 106.55 161.343 105.647C159.688 104.744 157.653 105.431 156.799 107.182C155.945 108.933 156.596 111.084 158.251 111.987C159.907 112.89 161.942 112.203 162.795 110.452Z" fill="url(#paint17_linear_11_45)"/>
<path d="M172.108 153.434C171.603 153.325 171.107 153.175 170.624 152.987C170.143 152.799 169.673 152.578 169.219 152.325C168.767 152.067 168.332 151.777 167.918 151.455C167.5 151.137 167.104 150.786 166.734 150.407L166.465 150.115L166.202 149.813L165.652 149.167C162.704 145.693 159.755 142.225 156.802 138.761L154.584 136.166L152.633 133.902L152.325 133.563C150.691 131.769 148.655 130.439 146.406 129.699C145.3 129.332 144.153 129.122 142.994 129.073C142.852 129.073 142.699 129.06 142.564 129.058H139.759C137.642 129.048 135.524 129.038 133.407 129.058C131.289 129.079 129.174 129.058 127.056 129.058H124.278L123.847 129.073C122.686 129.123 121.536 129.336 120.428 129.708C119.314 130.069 118.249 130.582 117.26 131.234C116.258 131.891 115.336 132.677 114.518 133.575L114.21 133.914L113.932 134.238L112.262 136.177L110.045 138.77C107.084 142.221 104.136 145.687 101.201 149.169L100.65 149.815L100.391 150.115L100.118 150.405C99.7482 150.784 99.3531 151.134 98.9357 151.453C98.5211 151.775 98.0859 152.066 97.6332 152.323C97.1786 152.575 96.7093 152.795 96.2281 152.983C95.7456 153.172 95.2501 153.321 94.7459 153.429L93.1804 153.779C92.1361 154.023 91.0951 154.265 90.0525 154.554C91.1224 154.535 92.1859 154.472 93.251 154.411L94.855 154.299C96.5388 154.151 98.1638 153.576 99.5934 152.624C100.079 152.297 100.543 151.934 100.979 151.538L101.3 151.231L101.613 150.911L102.19 150.285C105.261 146.954 108.335 143.631 111.388 140.278L115.952 135.288C116.666 134.544 117.466 133.898 118.332 133.365C118.759 133.1 119.2 132.862 119.652 132.651C120.104 132.45 120.567 132.278 121.038 132.137C121.507 131.992 121.984 131.879 122.466 131.797C122.944 131.722 123.426 131.676 123.909 131.66L124.273 131.648H125.475L127.068 131.657C129.183 131.668 131.298 131.68 133.412 131.67C135.526 131.66 137.645 131.67 139.76 131.657L141.355 131.648H142.556C142.688 131.648 142.8 131.648 142.924 131.657C143.407 131.673 143.889 131.718 144.367 131.792C144.85 131.874 145.327 131.987 145.797 132.132C146.746 132.418 147.656 132.831 148.506 133.363C149.373 133.896 150.175 134.542 150.891 135.285L155.458 140.278C158.505 143.629 161.59 146.954 164.66 150.285L165.241 150.912L165.562 151.233L165.883 151.54C166.319 151.937 166.783 152.3 167.268 152.627C168.225 153.264 169.272 153.736 170.369 154.023C170.908 154.162 171.456 154.256 172.008 154.306L173.612 154.418C174.678 154.479 175.744 154.542 176.821 154.561C175.781 154.272 174.735 154.03 173.691 153.785L172.108 153.434Z" fill="url(#paint18_radial_11_45)"/>
<path d="M99.6223 119.453H104.321V124.423C104.321 125.053 104.557 125.657 104.978 126.102C105.399 126.547 105.971 126.797 106.566 126.797H108.491C109.087 126.797 109.658 126.547 110.079 126.102C110.5 125.657 110.737 125.053 110.737 124.423V119.453H115.437C116.032 119.453 116.603 119.203 117.024 118.758C117.446 118.312 117.682 117.708 117.682 117.079V115.043C117.682 114.414 117.446 113.81 117.024 113.364C116.603 112.919 116.032 112.669 115.437 112.669H110.737V107.713C110.737 107.083 110.5 106.479 110.079 106.034C109.658 105.589 109.087 105.338 108.491 105.338H106.566C105.971 105.338 105.399 105.589 104.978 106.034C104.557 106.479 104.321 107.083 104.321 107.713V112.682H99.6223C99.0267 112.682 98.4555 112.933 98.0344 113.378C97.6132 113.823 97.3766 114.427 97.3766 115.057L97.3766 117.092C97.38 117.72 97.618 118.32 98.0389 118.763C98.4596 119.205 99.0289 119.453 99.6223 119.453Z" fill="#F81F96"/>
<path d="M187.808 142.601C187.808 142.457 187.808 142.311 187.808 142.166C187.808 142.089 187.808 142.015 187.808 141.94C187.802 141.781 187.794 141.621 187.784 141.462C187.784 141.402 187.784 141.343 187.773 141.284C187.757 141.065 187.739 140.846 187.715 140.625C187.715 140.586 187.706 140.546 187.701 140.505C187.682 140.324 187.659 140.144 187.635 139.962L187.601 139.737C187.579 139.585 187.555 139.434 187.529 139.284C187.515 139.204 187.502 139.123 187.486 139.043C187.459 138.887 187.427 138.733 187.395 138.577C187.38 138.504 187.366 138.432 187.35 138.361C187.301 138.136 187.25 137.91 187.189 137.683L179.122 105.569C179.11 105.517 179.094 105.464 179.081 105.413C178.913 104.77 178.712 104.137 178.476 103.519C178.348 103.179 178.206 102.857 178.059 102.533C177.725 101.798 177.343 101.089 176.914 100.411C175.429 98.0811 173.426 96.1717 171.081 94.8504C168.735 93.5292 166.119 92.8365 163.462 92.8333L133.314 92.9825L121.325 92.9231V62.9177H143.073V66.9459C143.072 67.2751 143.139 67.6005 143.271 67.8986C143.403 68.197 143.595 68.4605 143.835 68.6709C143.891 68.7226 143.951 68.7707 144.013 68.815C144.069 68.854 144.127 68.893 144.188 68.927C144.499 69.1056 144.849 69.1988 145.203 69.1983H165.886C166.407 69.2 166.911 68.999 167.302 68.6334C167.692 68.2679 167.942 67.7633 168.003 67.2156C168.003 67.1647 168.014 67.1139 168.018 67.0613C168.023 66.9602 168.023 66.8588 168.018 66.7577C167.981 66.3248 167.827 65.9123 167.573 65.5704L161.029 56.6405L167.631 47.4698C167.852 47.1676 167.996 46.81 168.048 46.4318C168.063 46.3302 168.07 46.2276 168.07 46.1248C168.07 46.0239 168.064 45.923 168.051 45.8229C168.033 45.673 168.001 45.5253 167.955 45.3819C167.923 45.2871 167.886 45.1942 167.844 45.1038C167.802 45.0139 167.755 44.9272 167.702 44.8443C167.676 44.8019 167.648 44.761 167.618 44.7222C167.56 44.6421 167.498 44.5661 167.43 44.4949C167.073 44.1204 166.601 43.894 166.099 43.8572H151.355V39.8273C151.354 39.2297 151.129 38.6568 150.73 38.2345C150.33 37.8121 149.788 37.5749 149.223 37.5749H121.324V34.8611C121.955 34.6411 122.536 34.2841 123.03 33.813C123.226 33.6275 123.407 33.425 123.571 33.2074C124.074 32.5425 124.409 31.7535 124.544 30.9143C124.615 30.4746 124.631 30.027 124.591 29.5829C124.566 29.2915 124.516 29.0031 124.442 28.7213C124.153 27.6124 123.518 26.6397 122.639 25.9618C122.09 25.5386 121.461 25.2453 120.796 25.1019C120.661 25.0713 120.523 25.0493 120.385 25.0323H120.366C120.282 25.0323 120.197 25.0154 120.114 25.0103H119.845C119.76 25.0103 119.675 25.0103 119.59 25.0103H119.564C119.488 25.0103 119.415 25.0221 119.339 25.0306L119.261 25.0408C119.205 25.0408 119.148 25.0544 119.092 25.0646L119.001 25.0815L118.84 25.112L118.746 25.1358L118.601 25.1731L118.507 25.2019C118.46 25.2155 118.414 25.2291 118.367 25.246L118.273 25.28C118.228 25.2958 118.183 25.3127 118.138 25.3308L118.045 25.3698L117.913 25.4275L117.823 25.4716C117.78 25.492 117.737 25.514 117.695 25.5378L117.609 25.5836L117.398 25.7074C117.357 25.7345 117.315 25.7616 117.275 25.7905L117.196 25.8431L117.073 25.9329L117.001 25.9872L116.874 26.0907L116.813 26.1416L116.633 26.3044C116.576 26.3604 116.518 26.4163 116.463 26.474C116.405 26.5351 116.351 26.5978 116.303 26.6606C116.297 26.6693 116.29 26.6772 116.282 26.6843C116.237 26.7386 116.191 26.7946 116.147 26.8539L116.104 26.9133C116.069 26.9591 116.035 27.0049 116.001 27.0524C115.968 27.0999 115.968 27.1015 115.952 27.127C115.935 27.1524 115.892 27.2135 115.865 27.2576L115.814 27.3424C115.788 27.3848 115.762 27.4272 115.738 27.4713L115.688 27.5612C115.666 27.6053 115.642 27.6477 115.621 27.6918L115.575 27.7868C115.554 27.8309 115.533 27.875 115.514 27.9191L115.47 28.0191L115.417 28.1531L115.379 28.2566C115.363 28.3007 115.347 28.3465 115.332 28.3923C115.318 28.4381 115.308 28.4635 115.297 28.4991C115.286 28.5347 115.27 28.5907 115.257 28.6382L115.228 28.7467L115.194 28.8892L115.17 28.9978C115.161 29.0487 115.153 29.0978 115.143 29.1487C115.133 29.1996 115.13 29.22 115.125 29.2556C115.121 29.2912 115.111 29.3607 115.105 29.4133C115.098 29.4659 115.105 29.4828 115.093 29.5168C115.082 29.5507 115.084 29.6338 115.079 29.6864C115.079 29.7152 115.079 29.7457 115.079 29.7746C115.079 29.8645 115.079 29.9442 115.079 30.0443C115.078 30.9513 115.31 31.8417 115.749 32.6206C116.302 33.5988 117.149 34.3526 118.156 34.7611V92.9062L103.186 92.8316C98.9389 92.8411 94.8632 94.6063 91.8298 97.7502C91.5186 98.0725 91.2202 98.41 90.9331 98.7594C90.5026 99.2858 90.1024 99.8391 89.7349 100.416C88.9879 101.591 88.3822 102.86 87.9319 104.194C87.8549 104.42 87.7827 104.646 87.7154 104.872C87.648 105.103 87.5854 105.335 87.5261 105.571L79.4449 137.681C79.3887 137.903 79.3374 138.125 79.2845 138.346L79.2411 138.558C79.2107 138.709 79.1802 138.858 79.1513 139.007L79.108 139.253C79.084 139.394 79.0615 139.533 79.0406 139.672C79.0278 139.755 79.015 139.842 79.0038 139.92C78.9845 140.062 78.9669 140.205 78.9492 140.347C78.9412 140.422 78.9316 140.498 78.9236 140.573C78.9043 140.743 78.8883 140.912 78.8738 141.094L78.8642 141.216C78.8482 141.428 78.8353 141.638 78.8273 141.848C78.8273 141.913 78.8273 141.977 78.8273 142.04C78.8273 142.188 78.8273 142.335 78.8177 142.481C78.8177 142.561 78.8177 142.64 78.8177 142.718C78.8177 142.851 78.8177 142.981 78.8177 143.11C78.8177 143.193 78.8177 143.28 78.8177 143.356C78.8177 143.487 78.8273 143.616 78.8353 143.745C78.8353 143.823 78.8353 143.901 78.8482 143.977C78.8578 144.121 78.8706 144.265 78.8834 144.408C78.8834 144.469 78.8931 144.528 78.8995 144.588C78.9187 144.786 78.9428 144.984 78.9685 145.181C78.9685 145.237 78.9861 145.293 78.9941 145.351C79.0134 145.492 79.0342 145.634 79.0583 145.775C79.0711 145.853 79.0856 145.929 79.0984 146.005C79.1208 146.126 79.1417 146.245 79.1658 146.365C79.1818 146.445 79.1994 146.535 79.2155 146.606C79.2411 146.721 79.2668 146.837 79.2941 146.945C79.3117 147.023 79.331 147.103 79.3502 147.181C79.3791 147.303 79.4112 147.422 79.4433 147.542C79.4625 147.612 79.4802 147.681 79.4994 147.751C79.5507 147.932 79.6037 148.114 79.6598 148.293C79.6742 148.341 79.6903 148.388 79.7063 148.436C79.7512 148.572 79.7962 148.709 79.8427 148.845C79.8699 148.919 79.8972 148.992 79.9229 149.065L80.0432 149.387C80.0737 149.465 80.1041 149.544 80.1362 149.622C80.1683 149.7 80.218 149.823 80.2613 149.923C80.3046 150.023 80.3271 150.079 80.3608 150.156C80.4057 150.258 80.4522 150.359 80.4987 150.461C80.5308 150.532 80.5645 150.605 80.5982 150.676C80.6559 150.799 80.7169 150.921 80.7778 151.041L80.8741 151.233C80.9511 151.379 81.0345 151.523 81.1067 151.665C81.1452 151.735 81.1837 151.803 81.2238 151.871C81.2783 151.966 81.3328 152.062 81.3842 152.155L81.5157 152.373C81.5702 152.461 81.6248 152.542 81.6761 152.637C81.7274 152.732 81.7675 152.781 81.8141 152.853C81.8606 152.924 81.9295 153.022 81.9889 153.114C82.0482 153.205 82.0819 153.251 82.1301 153.319C82.1958 153.412 82.2632 153.507 82.3322 153.601L82.4557 153.77C82.5631 153.914 82.6706 154.055 82.7765 154.194C82.8214 154.252 82.8695 154.308 82.916 154.364C82.9866 154.45 83.0556 154.533 83.1278 154.622L83.2882 154.812C83.3539 154.888 83.4213 154.966 83.4903 155.042L83.6603 155.23L83.8705 155.454L84.0421 155.634L84.2731 155.865L84.4335 156.023C84.5602 156.145 84.6885 156.265 84.8168 156.384L84.9596 156.509C85.0494 156.589 85.1393 156.679 85.2291 156.748L85.4119 156.901L85.6526 157.1L85.8466 157.254C85.9269 157.317 86.0071 157.379 86.0889 157.44L86.283 157.588L86.546 157.776L86.7273 157.905C86.8492 157.99 86.9711 158.075 87.0946 158.153L87.255 158.258C87.3785 158.338 87.502 158.416 87.6271 158.492L87.8116 158.601C87.9063 158.657 88.0025 158.714 88.0987 158.77L88.3008 158.882L88.58 159.035L88.7853 159.142L89.2729 159.382C89.3948 159.44 89.5151 159.494 89.637 159.552L89.767 159.611C89.9274 159.683 90.0878 159.751 90.2562 159.817L90.4262 159.883C90.5385 159.927 90.6508 159.969 90.7647 160.01L90.9668 160.083C91.0711 160.119 91.1753 160.156 91.2876 160.19L91.4961 160.258L91.8169 160.356L92.0142 160.414C92.1394 160.449 92.2645 160.482 92.3896 160.514L92.5388 160.553C92.712 160.595 92.8868 160.636 93.0633 160.673L93.1932 160.7L93.5958 160.778L93.7883 160.811L94.1364 160.865L94.3417 160.894L94.6866 160.934L94.8887 160.956L95.2673 160.989L95.4277 161.001C95.6089 161.012 95.7902 161.023 95.9714 161.028H96.5056C96.7318 161.028 96.9595 161.028 97.1873 161.011H97.3188C97.5033 161.011 97.6878 160.989 97.8738 160.972L98.1032 160.95C98.2636 160.933 98.424 160.914 98.5844 160.892L98.8154 160.86C98.9983 160.833 99.1795 160.802 99.3624 160.768L99.5052 160.743C99.7313 160.699 99.9591 160.648 100.185 160.593L100.376 160.544C100.537 160.502 100.708 160.458 100.875 160.41L101.109 160.339C101.27 160.29 101.43 160.239 101.59 160.185L101.821 160.122C102.048 160.042 102.274 159.952 102.498 159.866C104.941 158.85 107.128 157.248 108.886 155.186L118.751 143.767C119.132 143.325 119.576 142.95 120.068 142.654C120.23 142.556 120.397 142.467 120.568 142.388C120.653 142.347 120.74 142.31 120.826 142.276C121.071 142.177 121.323 142.098 121.579 142.038L121.683 142.015C122.036 141.939 122.396 141.9 122.756 141.899H143.305C143.763 141.9 144.219 141.962 144.662 142.082C144.838 142.13 145.011 142.186 145.181 142.252C145.266 142.284 145.351 142.32 145.434 142.357C145.768 142.508 146.086 142.694 146.385 142.912C146.461 142.966 146.533 143.024 146.607 143.081C146.824 143.259 147.03 143.454 147.221 143.663L157.898 155.432C158.604 156.212 159.37 156.929 160.188 157.574C161.006 158.22 161.879 158.782 162.796 159.255C162.976 159.347 163.156 159.425 163.335 159.518L163.496 159.593C163.629 159.652 163.762 159.712 163.897 159.762L164.057 159.832C164.23 159.903 164.404 159.973 164.578 160.037H164.601C164.784 160.105 164.965 160.168 165.148 160.227L165.308 160.281C165.441 160.324 165.575 160.365 165.709 160.402L165.879 160.451C166.047 160.498 166.216 160.543 166.385 160.583L166.431 160.595C166.614 160.639 166.795 160.678 166.978 160.716L167.139 160.748C167.273 160.773 167.406 160.797 167.541 160.819L167.714 160.848C167.875 160.873 168.045 160.895 168.208 160.916H168.268C168.451 160.938 168.635 160.955 168.818 160.97L168.978 160.982C169.115 160.992 169.251 161.001 169.387 161.006L169.548 161.014C169.708 161.014 169.869 161.014 170.037 161.024H170.1C170.287 161.024 170.473 161.024 170.659 161.024L170.82 161.016C170.953 161.016 171.088 161.002 171.221 160.994L171.415 160.978L171.79 160.945L171.981 160.923C172.122 160.907 172.263 160.889 172.403 160.868L172.535 160.85C172.717 160.822 172.9 160.792 173.083 160.758L173.203 160.734L173.63 160.646L173.811 160.604C173.935 160.575 174.058 160.546 174.182 160.514L174.366 160.466L174.755 160.356L174.904 160.312C175.082 160.258 175.26 160.202 175.438 160.142L175.475 160.129C175.635 160.074 175.796 160.015 175.956 159.959L176.116 159.898L176.484 159.752L176.655 159.679C176.777 159.627 176.899 159.574 177.019 159.51L177.18 159.442C177.34 159.367 177.501 159.291 177.661 159.213L177.688 159.199C177.849 159.114 178.025 159.03 178.19 158.935L178.316 158.865C178.439 158.797 178.561 158.728 178.683 158.657L178.843 158.565C178.957 158.497 179.071 158.426 179.185 158.355L179.329 158.263C179.461 158.178 179.591 158.093 179.721 158.005L179.799 157.953C179.96 157.844 180.12 157.732 180.268 157.613L180.348 157.554C180.473 157.461 180.597 157.368 180.718 157.271L180.852 157.166C180.959 157.081 181.063 156.996 181.172 156.906L181.307 156.794C181.419 156.699 181.528 156.603 181.639 156.504L181.737 156.418C181.88 156.289 182.021 156.157 182.16 156.023L182.178 156.004C182.308 155.878 182.438 155.749 182.565 155.619L182.672 155.505C182.77 155.403 182.866 155.302 182.963 155.198L183.08 155.068C183.176 154.961 183.269 154.854 183.362 154.745C183.396 154.706 183.429 154.669 183.461 154.63C183.71 154.335 183.95 154.031 184.183 153.719L184.265 153.606C184.352 153.487 184.437 153.366 184.522 153.246L184.621 153.098C184.7 152.983 184.782 152.866 184.854 152.747L184.947 152.605C185.035 152.464 185.122 152.323 185.208 152.181C185.221 152.155 185.237 152.133 185.251 152.108C185.351 151.938 185.449 151.769 185.545 151.599L185.596 151.501C185.671 151.362 185.745 151.221 185.818 151.078L185.898 150.919C185.959 150.793 186.02 150.666 186.079 150.539C186.106 150.483 186.132 150.429 186.158 150.369C186.22 150.23 186.281 150.091 186.341 149.951C186.358 149.908 186.378 149.867 186.395 149.825C186.472 149.64 186.546 149.453 186.617 149.265C186.617 149.247 186.631 149.226 186.637 149.208C186.7 149.038 186.761 148.868 186.819 148.699C186.838 148.643 186.856 148.587 186.873 148.529C186.918 148.395 186.961 148.258 187.003 148.122L187.061 147.932C187.101 147.793 187.139 147.652 187.178 147.512C187.192 147.456 187.208 147.401 187.223 147.342C187.324 146.948 187.412 146.552 187.488 146.155C187.499 146.097 187.508 146.039 187.518 145.985C187.545 145.839 187.569 145.693 187.592 145.548C187.603 145.478 187.613 145.408 187.622 145.339C187.642 145.198 187.661 145.056 187.677 144.913C187.677 144.845 187.694 144.779 187.701 144.713C187.719 144.543 187.735 144.374 187.749 144.204L187.759 144.089C187.775 143.879 187.786 143.668 187.794 143.456C187.794 143.402 187.794 143.349 187.794 143.295C187.794 143.136 187.804 142.976 187.805 142.817C187.81 142.749 187.81 142.674 187.808 142.601ZM149.977 62.319C150.049 62.2664 150.121 62.2088 150.19 62.1494C150.551 61.8322 150.842 61.4352 151.042 60.9862C151.242 60.5373 151.347 60.0473 151.348 59.551V47.212H163.81L158.493 54.5968L157.012 56.6609L158.342 58.474L158.51 58.7047L163.738 65.8333H146.254V62.9177H148.164C148.812 62.9184 149.445 62.7095 149.977 62.319ZM121.218 59.5442V40.9297H148.166V59.5442H121.218ZM184.623 142.464C184.623 142.746 184.623 143.027 184.611 143.312C184.611 143.472 184.595 143.629 184.584 143.787C184.567 144.04 184.542 144.296 184.512 144.542C184.491 144.723 184.466 144.903 184.438 145.081C184.361 145.572 184.259 146.059 184.135 146.54L184.073 146.769C184.021 146.952 183.967 147.133 183.912 147.315C183.883 147.408 183.853 147.5 183.821 147.591C183.333 149.016 182.638 150.352 181.763 151.552C181.329 152.147 180.855 152.709 180.346 153.234C177.617 156.059 173.957 157.653 170.138 157.68C168.076 157.681 166.041 157.185 164.189 156.228C162.694 155.444 161.342 154.386 160.198 153.102L149.521 141.334C148.716 140.451 147.751 139.747 146.684 139.266C145.617 138.785 144.469 138.535 143.309 138.533H122.761C121.565 138.534 120.383 138.798 119.289 139.308C118.195 139.818 117.213 140.563 116.405 141.496L106.541 152.914C105.114 154.589 103.341 155.893 101.359 156.723C99.8058 157.356 98.1547 157.681 96.4895 157.68C91.9982 157.68 87.6576 155.388 84.865 151.55C82.9597 148.956 81.9494 145.753 82.0017 142.469C82.0213 141.146 82.1958 139.83 82.5214 138.551L90.593 106.431C91.3317 103.499 92.9642 100.908 95.2376 99.0574C97.511 97.2071 100.298 96.2015 103.167 96.1966L133.303 96.3458H133.331L163.465 96.1966C166.335 96.2008 169.122 97.2061 171.396 99.0565C173.67 100.907 175.303 103.499 176.041 106.431L184.109 138.544C184.137 138.655 184.162 138.763 184.188 138.873C184.204 138.943 184.22 139.013 184.235 139.082C184.318 139.464 184.389 139.845 184.446 140.224C184.558 140.965 184.619 141.714 184.629 142.464H184.623Z" fill="url(#paint19_linear_11_45)"/>
<path d="M36.696 247.384C35.0107 247.384 33.464 247.085 32.056 246.488C30.648 245.869 29.4213 245.016 28.376 243.928C27.352 242.819 26.552 241.517 25.976 240.024C25.4 238.531 25.112 236.888 25.112 235.096C25.112 233.304 25.4 231.661 25.976 230.168C26.552 228.675 27.352 227.373 28.376 226.264C29.4213 225.155 30.648 224.301 32.056 223.704C33.464 223.085 35.0107 222.776 36.696 222.776C38.3173 222.776 39.768 223.064 41.048 223.64C42.3493 224.216 43.4373 224.963 44.312 225.88C45.208 226.776 45.848 227.725 46.232 228.728L43.832 229.784C43.2347 228.397 42.3173 227.288 41.08 226.456C39.864 225.603 38.4027 225.176 36.696 225.176C34.9467 225.176 33.3893 225.592 32.024 226.424C30.6587 227.256 29.592 228.419 28.824 229.912C28.056 231.384 27.672 233.112 27.672 235.096C27.672 237.059 28.056 238.787 28.824 240.28C29.592 241.773 30.6587 242.936 32.024 243.768C33.3893 244.579 34.9467 244.984 36.696 244.984C38.4027 244.984 39.864 244.568 41.08 243.736C42.3173 242.904 43.2347 241.795 43.832 240.408L46.232 241.464C45.848 242.445 45.208 243.395 44.312 244.312C43.4373 245.208 42.3493 245.944 41.048 246.52C39.768 247.096 38.3173 247.384 36.696 247.384Z" fill="#F71F97"/>
<path d="M58.1835 247.384C56.5622 247.384 55.0902 247 53.7675 246.232C52.4448 245.443 51.3888 244.376 50.5995 243.032C49.8315 241.667 49.4475 240.12 49.4475 238.392C49.4475 236.685 49.8315 235.16 50.5995 233.816C51.3675 232.472 52.4022 231.416 53.7035 230.648C55.0262 229.859 56.5195 229.464 58.1835 229.464C59.8475 229.464 61.3302 229.848 62.6315 230.616C63.9542 231.384 64.9888 232.44 65.7355 233.784C66.5035 235.128 66.8875 236.664 66.8875 238.392C66.8875 240.141 66.4928 241.699 65.7035 243.064C64.9142 244.408 63.8582 245.464 62.5355 246.232C61.2342 247 59.7835 247.384 58.1835 247.384ZM58.1835 244.984C59.3355 244.984 60.3702 244.696 61.2875 244.12C62.2262 243.544 62.9622 242.755 63.4955 241.752C64.0502 240.749 64.3275 239.629 64.3275 238.392C64.3275 237.155 64.0502 236.045 63.4955 235.064C62.9622 234.083 62.2262 233.304 61.2875 232.728C60.3702 232.152 59.3355 231.864 58.1835 231.864C57.0315 231.864 55.9862 232.152 55.0475 232.728C54.1302 233.304 53.3942 234.083 52.8395 235.064C52.2848 236.045 52.0075 237.155 52.0075 238.392C52.0075 239.629 52.2848 240.749 52.8395 241.752C53.3942 242.755 54.1302 243.544 55.0475 244.12C55.9862 244.696 57.0315 244.984 58.1835 244.984Z" fill="#F71F97"/>
<path d="M75.3838 247L68.6957 229.848H71.3838L77.0157 244.888H76.1517L81.8158 229.848H84.5358L77.7838 247H75.3838Z" fill="#F71F97"/>
<path d="M94.8345 247.384C93.2345 247.384 91.7838 247 90.4825 246.232C89.2025 245.443 88.1892 244.365 87.4425 243C86.6958 241.635 86.3225 240.088 86.3225 238.36C86.3225 236.632 86.6852 235.107 87.4105 233.784C88.1358 232.44 89.1172 231.384 90.3545 230.616C91.6132 229.848 93.0212 229.464 94.5785 229.464C95.8158 229.464 96.9145 229.699 97.8745 230.168C98.8558 230.616 99.6878 231.235 100.37 232.024C101.053 232.792 101.576 233.667 101.938 234.648C102.301 235.608 102.482 236.6 102.482 237.624C102.482 237.837 102.472 238.083 102.451 238.36C102.429 238.616 102.397 238.883 102.354 239.16H87.8585V236.92H100.979L99.8265 237.88C100.019 236.707 99.8798 235.661 99.4105 234.744C98.9625 233.805 98.3118 233.069 97.4585 232.536C96.6052 231.981 95.6452 231.704 94.5785 231.704C93.5118 231.704 92.5198 231.981 91.6025 232.536C90.7065 233.091 90.0025 233.869 89.4905 234.872C88.9785 235.853 88.7758 237.027 88.8825 238.392C88.7758 239.757 88.9892 240.952 89.5225 241.976C90.0772 242.979 90.8238 243.757 91.7625 244.312C92.7225 244.867 93.7465 245.144 94.8345 245.144C96.0932 245.144 97.1492 244.845 98.0025 244.248C98.8558 243.651 99.5492 242.904 100.083 242.008L102.131 243.096C101.789 243.864 101.267 244.579 100.562 245.24C99.8585 245.88 99.0158 246.403 98.0345 246.808C97.0745 247.192 96.0078 247.384 94.8345 247.384Z" fill="#F71F97"/>
<path d="M106.714 247V229.848H109.114V232.664L108.794 232.248C109.199 231.437 109.807 230.797 110.618 230.328C111.45 229.859 112.453 229.624 113.626 229.624H114.714V232.024H113.21C111.973 232.024 110.981 232.408 110.234 233.176C109.487 233.944 109.114 235.032 109.114 236.44V247H106.714Z" fill="#F71F97"/>
<path d="M123.316 247V223.16H125.556L134.516 236.152H133.268L142.196 223.16H144.436V247H141.876V226.616L142.708 226.936L133.94 239.64H133.812L125.076 226.936L125.876 226.616V247H123.316Z" fill="#F71F97"/>
<path d="M149.714 247V229.848H152.114V247H149.714ZM149.714 226.68V223.16H152.114V226.68H149.714Z" fill="#F71F97"/>
<path d="M162.979 247.384C161.336 247.384 159.896 246.968 158.658 246.136C157.421 245.304 156.525 244.173 155.971 242.744L157.986 241.784C158.477 242.829 159.16 243.661 160.035 244.28C160.931 244.899 161.912 245.208 162.979 245.208C164.003 245.208 164.866 244.963 165.57 244.472C166.274 243.96 166.626 243.299 166.626 242.488C166.626 241.891 166.456 241.421 166.115 241.08C165.773 240.717 165.378 240.44 164.93 240.248C164.482 240.056 164.088 239.917 163.747 239.832L161.283 239.128C159.704 238.68 158.563 238.051 157.859 237.24C157.155 236.429 156.803 235.491 156.803 234.424C156.803 233.421 157.058 232.547 157.57 231.8C158.082 231.053 158.776 230.477 159.65 230.072C160.525 229.667 161.496 229.464 162.562 229.464C164.013 229.464 165.325 229.848 166.499 230.616C167.693 231.363 168.536 232.408 169.027 233.752L166.979 234.712C166.552 233.752 165.933 233.005 165.122 232.472C164.333 231.917 163.448 231.64 162.467 231.64C161.507 231.64 160.739 231.885 160.163 232.376C159.587 232.867 159.298 233.485 159.298 234.232C159.298 234.808 159.448 235.267 159.747 235.608C160.045 235.949 160.387 236.205 160.771 236.376C161.176 236.547 161.528 236.675 161.827 236.76L164.674 237.592C166.061 237.997 167.138 238.627 167.906 239.48C168.696 240.333 169.09 241.336 169.09 242.488C169.09 243.427 168.824 244.269 168.29 245.016C167.778 245.763 167.064 246.349 166.146 246.776C165.229 247.181 164.173 247.384 162.979 247.384Z" fill="#F71F97"/>
<path d="M179.26 247.384C177.617 247.384 176.177 246.968 174.94 246.136C173.702 245.304 172.806 244.173 172.252 242.744L174.268 241.784C174.758 242.829 175.441 243.661 176.316 244.28C177.212 244.899 178.193 245.208 179.26 245.208C180.284 245.208 181.148 244.963 181.852 244.472C182.556 243.96 182.908 243.299 182.908 242.488C182.908 241.891 182.737 241.421 182.396 241.08C182.054 240.717 181.66 240.44 181.212 240.248C180.764 240.056 180.369 239.917 180.028 239.832L177.564 239.128C175.985 238.68 174.844 238.051 174.14 237.24C173.436 236.429 173.084 235.491 173.084 234.424C173.084 233.421 173.34 232.547 173.852 231.8C174.364 231.053 175.057 230.477 175.932 230.072C176.806 229.667 177.777 229.464 178.844 229.464C180.294 229.464 181.606 229.848 182.78 230.616C183.974 231.363 184.817 232.408 185.308 233.752L183.26 234.712C182.833 233.752 182.214 233.005 181.404 232.472C180.614 231.917 179.729 231.64 178.748 231.64C177.788 231.64 177.02 231.885 176.444 232.376C175.868 232.867 175.58 233.485 175.58 234.232C175.58 234.808 175.729 235.267 176.028 235.608C176.326 235.949 176.668 236.205 177.052 236.376C177.457 236.547 177.809 236.675 178.108 236.76L180.956 237.592C182.342 237.997 183.42 238.627 184.188 239.48C184.977 240.333 185.372 241.336 185.372 242.488C185.372 243.427 185.105 244.269 184.572 245.016C184.06 245.763 183.345 246.349 182.428 246.776C181.51 247.181 180.454 247.384 179.26 247.384Z" fill="#F71F97"/>
<path d="M189.589 247V229.848H191.989V247H189.589ZM189.589 226.68V223.16H191.989V226.68H189.589Z" fill="#F71F97"/>
<path d="M196.902 247V229.848H199.301V233.176L198.758 233.048C199.184 231.939 199.877 231.064 200.837 230.424C201.819 229.784 202.95 229.464 204.23 229.464C205.446 229.464 206.533 229.741 207.493 230.296C208.475 230.851 209.243 231.619 209.798 232.6C210.374 233.56 210.661 234.648 210.661 235.864V247H208.262V236.792C208.262 235.747 208.07 234.861 207.686 234.136C207.323 233.411 206.8 232.856 206.117 232.472C205.456 232.067 204.688 231.864 203.814 231.864C202.939 231.864 202.16 232.067 201.477 232.472C200.795 232.856 200.262 233.421 199.878 234.168C199.494 234.893 199.301 235.768 199.301 236.792V247H196.902Z" fill="#F71F97"/>
<path d="M223.373 254.04C222.2 254.04 221.112 253.859 220.109 253.496C219.128 253.133 218.275 252.632 217.549 251.992C216.845 251.373 216.301 250.648 215.917 249.816L218.125 248.632C218.467 249.443 219.075 250.147 219.949 250.744C220.824 251.341 221.944 251.64 223.309 251.64C224.355 251.64 225.315 251.437 226.189 251.032C227.064 250.627 227.768 250.029 228.301 249.24C228.835 248.451 229.101 247.48 229.101 246.328V242.52L229.485 242.872C228.888 244.109 228.003 245.069 226.829 245.752C225.656 246.413 224.376 246.744 222.989 246.744C221.389 246.744 219.949 246.36 218.669 245.592C217.389 244.824 216.376 243.789 215.629 242.488C214.904 241.165 214.541 239.704 214.541 238.104C214.541 236.483 214.904 235.021 215.629 233.72C216.376 232.419 217.379 231.384 218.637 230.616C219.917 229.848 221.368 229.464 222.989 229.464C224.376 229.464 225.635 229.784 226.765 230.424C227.917 231.064 228.824 231.928 229.485 233.016L229.101 233.688V229.848H231.501V246.328C231.501 247.8 231.149 249.112 230.445 250.264C229.763 251.437 228.803 252.355 227.565 253.016C226.349 253.699 224.952 254.04 223.373 254.04ZM223.117 244.344C224.227 244.344 225.229 244.067 226.125 243.512C227.021 242.936 227.736 242.179 228.269 241.24C228.824 240.28 229.101 239.235 229.101 238.104C229.101 236.973 228.824 235.939 228.269 235C227.736 234.04 227.021 233.283 226.125 232.728C225.229 232.152 224.227 231.864 223.117 231.864C221.987 231.864 220.963 232.152 220.045 232.728C219.128 233.283 218.403 234.029 217.869 234.968C217.357 235.907 217.101 236.952 217.101 238.104C217.101 239.235 217.357 240.28 217.869 241.24C218.403 242.179 219.117 242.936 220.013 243.512C220.931 244.067 221.965 244.344 223.117 244.344Z" fill="#F71F97"/>
<defs>
<linearGradient id="paint0_linear_11_45" x1="83.0819" y1="-614.193" x2="142.654" y2="-614.193" gradientUnits="userSpaceOnUse">
<stop stop-color="#B921B2"/>
<stop offset="0.15" stop-color="#B120AE"/>
<stop offset="0.38" stop-color="#9B1FA4"/>
<stop offset="0.67" stop-color="#781C94"/>
<stop offset="1" stop-color="#46197D"/>
</linearGradient>
<linearGradient id="paint1_linear_11_45" x1="787.05" y1="-1886.55" x2="1015.3" y2="-1886.55" gradientUnits="userSpaceOnUse">
<stop stop-color="#B921B2"/>
<stop offset="0.15" stop-color="#B120AE"/>
<stop offset="0.38" stop-color="#9B1FA4"/>
<stop offset="0.67" stop-color="#781C94"/>
<stop offset="1" stop-color="#46197D"/>
</linearGradient>
<linearGradient id="paint2_linear_11_45" x1="-1749.4" y1="-786.381" x2="-1277.92" y2="-786.381" gradientUnits="userSpaceOnUse">
<stop stop-color="#B921B2"/>
<stop offset="0.15" stop-color="#B120AE"/>
<stop offset="0.38" stop-color="#9B1FA4"/>
<stop offset="0.67" stop-color="#781C94"/>
<stop offset="1" stop-color="#46197D"/>
</linearGradient>
<linearGradient id="paint3_linear_11_45" x1="672.139" y1="-353.695" x2="830.084" y2="-353.695" gradientUnits="userSpaceOnUse">
<stop stop-color="#B921B2"/>
<stop offset="0.15" stop-color="#B120AE"/>
<stop offset="0.38" stop-color="#9B1FA4"/>
<stop offset="0.67" stop-color="#781C94"/>
<stop offset="1" stop-color="#46197D"/>
</linearGradient>
<linearGradient id="paint4_linear_11_45" x1="-118.108" y1="156.68" x2="-45.6451" y2="156.68" gradientUnits="userSpaceOnUse">
<stop stop-color="#B921B2"/>
<stop offset="0.15" stop-color="#B120AE"/>
<stop offset="0.38" stop-color="#9B1FA4"/>
<stop offset="0.67" stop-color="#781C94"/>
<stop offset="1" stop-color="#46197D"/>
</linearGradient>
<linearGradient id="paint5_linear_11_45" x1="329.001" y1="226.69" x2="414.693" y2="226.69" gradientUnits="userSpaceOnUse">
<stop stop-color="#B921B2"/>
<stop offset="0.15" stop-color="#B120AE"/>
<stop offset="0.38" stop-color="#9B1FA4"/>
<stop offset="0.67" stop-color="#781C94"/>
<stop offset="1" stop-color="#46197D"/>
</linearGradient>
<linearGradient id="paint6_linear_11_45" x1="0" y1="184.985" x2="343.667" y2="184.985" gradientUnits="userSpaceOnUse">
<stop stop-color="#B921B2"/>
<stop offset="0.15" stop-color="#B120AE"/>
<stop offset="0.38" stop-color="#9B1FA4"/>
<stop offset="0.67" stop-color="#781C94"/>
<stop offset="1" stop-color="#46197D"/>
</linearGradient>
<linearGradient id="paint7_linear_11_45" x1="-3822.55" y1="106.969" x2="-770.744" y2="106.969" gradientUnits="userSpaceOnUse">
<stop stop-color="#B921B2"/>
<stop offset="0.15" stop-color="#B120AE"/>
<stop offset="0.38" stop-color="#9B1FA4"/>
<stop offset="0.67" stop-color="#781C94"/>
<stop offset="1" stop-color="#46197D"/>
</linearGradient>
<linearGradient id="paint8_linear_11_45" x1="269.615" y1="-443.222" x2="269.615" y2="404.8" gradientUnits="userSpaceOnUse">
<stop offset="1" stop-color="#1D0B47"/>
</linearGradient>
<linearGradient id="paint9_linear_11_45" x1="325.45" y1="-8413.35" x2="325.45" y2="1057.47" gradientUnits="userSpaceOnUse">
<stop offset="1" stop-color="#1D0B47"/>
</linearGradient>
<linearGradient id="paint10_linear_11_45" x1="134.997" y1="-83678" x2="134.997" y2="12977.9" gradientUnits="userSpaceOnUse">
<stop offset="1" stop-color="#1D0B47"/>
</linearGradient>
<linearGradient id="paint11_linear_11_45" x1="-137.997" y1="-59291.9" x2="-137.997" y2="9624.15" gradientUnits="userSpaceOnUse">
<stop offset="1" stop-color="#1D0B47"/>
</linearGradient>
<linearGradient id="paint12_linear_11_45" x1="-1080.02" y1="-94412.1" x2="-1080.02" y2="15754.8" gradientUnits="userSpaceOnUse">
<stop offset="1" stop-color="#1D0B47"/>
</linearGradient>
<linearGradient id="paint13_linear_11_45" x1="-2813.04" y1="-52314.9" x2="-2813.04" y2="9158.24" gradientUnits="userSpaceOnUse">
<stop offset="1" stop-color="#1D0B47"/>
</linearGradient>
<linearGradient id="paint14_linear_11_45" x1="-0.192857" y1="184.736" x2="270.193" y2="184.736" gradientUnits="userSpaceOnUse">
<stop stop-color="#01D1E0"/>
<stop offset="1" stop-color="#00D2E0"/>
</linearGradient>
<linearGradient id="paint15_linear_11_45" x1="-0.257143" y1="184.736" x2="270.193" y2="184.736" gradientUnits="userSpaceOnUse">
<stop stop-color="#01D1E0"/>
<stop offset="1" stop-color="#00D2E0"/>
</linearGradient>
<linearGradient id="paint16_linear_11_45" x1="-0.192857" y1="184.736" x2="270.193" y2="184.736" gradientUnits="userSpaceOnUse">
<stop stop-color="#01D1E0"/>
<stop offset="1" stop-color="#00D2E0"/>
</linearGradient>
<linearGradient id="paint17_linear_11_45" x1="-0.15329" y1="185.371" x2="269.854" y2="185.371" gradientUnits="userSpaceOnUse">
<stop stop-color="#01D1E0"/>
<stop offset="1" stop-color="#00D2E0"/>
</linearGradient>
<radialGradient id="paint18_radial_11_45" cx="0" cy="0" r="1" gradientUnits="userSpaceOnUse" gradientTransform="translate(134.973 184.888) scale(99.0694 488.187)">
<stop stop-color="#B921B2"/>
<stop offset="1" stop-color="#46197D"/>
</radialGradient>
<linearGradient id="paint19_linear_11_45" x1="134.997" y1="-0.0276825" x2="134.997" y2="370.028" gradientUnits="userSpaceOnUse">
<stop stop-color="#F91E96"/>
<stop offset="0.07" stop-color="#F42298"/>
<stop offset="0.16" stop-color="#E42D9C"/>
<stop offset="0.27" stop-color="#CB40A4"/>
<stop offset="0.37" stop-color="#A859AE"/>
<stop offset="0.43" stop-color="#8870B7"/>
<stop offset="0.54" stop-color="#42A2CC"/>
<stop offset="0.6" stop-color="#36ABD0"/>
<stop offset="0.76" stop-color="#19C0D9"/>
<stop offset="0.9" stop-color="#06CDDE"/>
<stop offset="1" stop-color="#00D2E0"/>
</linearGradient>
</defs>
</svg>
