<svg width="90" height="90" viewBox="0 0 90 90" fill="none" xmlns="http://www.w3.org/2000/svg">
<circle cx="45" cy="45" r="45" fill="black"/>
<rect width="39" height="37" transform="translate(25.0001 26)" fill="url(#paint0_linear_18_15)"/>
<path d="M55.4773 51.3761L53.8817 49.3128C44.5989 55.9035 35.4878 49.5316 35.1039 49.2572L33.4936 51.3097C33.5667 51.3613 38.4388 54.8008 44.9057 54.82C48.1614 54.8296 51.8226 53.9716 55.4773 51.3761Z" fill="black"/>
<path d="M37.5682 42.3071C39.629 42.3132 41.3044 40.7176 41.3102 38.7432C41.316 36.7687 39.6501 35.1632 37.5892 35.1571C35.5284 35.151 33.853 36.7466 33.8472 38.7211C33.8414 40.6955 35.5073 42.301 37.5682 42.3071Z" fill="black"/>
<path d="M55.1787 41.2817L51.1687 38.7725L55.1947 36.2858L53.7407 34.1277L46.246 38.7579L53.7146 43.4311L55.1787 41.2817Z" fill="black"/>
<path d="M29.0456 65.0983L59.8334 65.1895C63.1662 65.1994 65.8865 62.6085 65.8959 59.4154L65.9829 29.919C65.9924 26.7259 63.2874 24.119 59.9545 24.1091L29.1667 24.0179C25.8338 24.008 23.1135 26.5989 23.1041 29.792L23.0171 59.2885C23.0077 62.4815 25.7127 65.0884 29.0456 65.0983ZM25.784 29.7999C25.7892 28.0222 27.3036 26.5799 29.1592 26.5854L59.947 26.6766C61.8025 26.6821 63.3083 28.1334 63.3031 29.9111L63.2161 59.4075C63.2109 61.1852 61.6965 62.6275 59.841 62.6221L29.0531 62.5309C27.1976 62.5254 25.6918 61.0741 25.697 59.2964L25.784 29.7999Z" fill="black"/>
<defs>
<linearGradient id="paint0_linear_18_15" x1="19.5" y1="0" x2="19.5" y2="37" gradientUnits="userSpaceOnUse">
<stop stop-color="#2369FF"/>
<stop offset="0.826923" stop-color="#AD2EFF"/>
</linearGradient>
</defs>
</svg>
